<?xml version="1.0" encoding="UTF-8" standalone="no"?>
<!DOCTYPE svg PUBLIC "-//W3C//DTD SVG 1.1//EN"
 "http://www.w3.org/Graphics/SVG/1.1/DTD/svg11.dtd">
<!-- Generated by graphviz version 2.47.3 (20210619.1520)
 -->
<!-- Title: dependencies Pages: 1 -->
<svg width="1612pt" height="174pt"
 viewBox="0.00 0.00 1612.00 173.80" xmlns="http://www.w3.org/2000/svg" xmlns:xlink="http://www.w3.org/1999/xlink">
<g id="graph0" class="graph" transform="scale(1 1) rotate(0) translate(4 169.8)">
<title>dependencies</title>
<polygon fill="white" stroke="transparent" points="-4,4 -4,-169.8 1608,-169.8 1608,4 -4,4"/>
<text text-anchor="middle" x="802" y="-8.2" font-family="sans-serif" font-size="14.00">dependencies</text>
<g id="clust1" class="cluster">
<title>cluster_UsersModule</title>
<polygon fill="none" stroke="black" stroke-dasharray="1,5" points="8,-32.8 8,-157.8 1596,-157.8 1596,-32.8 8,-32.8"/>
</g>
<g id="clust2" class="cluster">
<title>cluster_UsersModule_declarations</title>
<polygon fill="none" stroke="black" points="176,-40.8 176,-92.8 1588,-92.8 1588,-40.8 176,-40.8"/>
</g>
<g id="clust12" class="cluster">
<title>cluster_UsersModule_imports</title>
<polygon fill="none" stroke="black" points="16,-40.8 16,-92.8 168,-92.8 168,-40.8 16,-40.8"/>
</g>
<!-- ConnectionComponent -->
<g id="node1" class="node">
<title>ConnectionComponent</title>
<polygon fill="#ffffb3" stroke="black" points="1579.88,-84.8 1434.12,-84.8 1434.12,-48.8 1579.88,-48.8 1579.88,-84.8"/>
<text text-anchor="middle" x="1507" y="-62.6" font-family="Times,serif" font-size="14.00">ConnectionComponent</text>
</g>
<!-- UsersModule -->
<g id="node10" class="node">
<title>UsersModule</title>
<polygon fill="#8dd3c7" stroke="black" points="813.92,-149.8 810.92,-153.8 789.92,-153.8 786.92,-149.8 722.08,-149.8 722.08,-113.8 813.92,-113.8 813.92,-149.8"/>
<text text-anchor="middle" x="768" y="-127.6" font-family="Times,serif" font-size="14.00">UsersModule</text>
</g>
<!-- ConnectionComponent&#45;&gt;UsersModule -->
<g id="edge1" class="edge">
<title>ConnectionComponent&#45;&gt;UsersModule</title>
<path fill="none" stroke="black" d="M1507,-84.81C1507,-107.29 1507,-142.8 1507,-142.8 1507,-142.8 823.95,-142.8 823.95,-142.8"/>
<polygon fill="black" stroke="black" points="823.95,-139.3 813.95,-142.8 823.95,-146.3 823.95,-139.3"/>
</g>
<!-- ForgetPasswordComponent -->
<g id="node2" class="node">
<title>ForgetPasswordComponent</title>
<polygon fill="#ffffb3" stroke="black" points="1415.54,-84.8 1244.46,-84.8 1244.46,-48.8 1415.54,-48.8 1415.54,-84.8"/>
<text text-anchor="middle" x="1330" y="-62.6" font-family="Times,serif" font-size="14.00">ForgetPasswordComponent</text>
</g>
<!-- ForgetPasswordComponent&#45;&gt;UsersModule -->
<g id="edge2" class="edge">
<title>ForgetPasswordComponent&#45;&gt;UsersModule</title>
<path fill="none" stroke="black" d="M1330,-84.93C1330,-105.37 1330,-135.8 1330,-135.8 1330,-135.8 823.99,-135.8 823.99,-135.8"/>
<polygon fill="black" stroke="black" points="823.99,-132.3 813.99,-135.8 823.99,-139.3 823.99,-132.3"/>
</g>
<!-- InscriptionComponent -->
<g id="node3" class="node">
<title>InscriptionComponent</title>
<polygon fill="#ffffb3" stroke="black" points="1225.98,-84.8 1084.02,-84.8 1084.02,-48.8 1225.98,-48.8 1225.98,-84.8"/>
<text text-anchor="middle" x="1155" y="-62.6" font-family="Times,serif" font-size="14.00">InscriptionComponent</text>
</g>
<!-- InscriptionComponent&#45;&gt;UsersModule -->
<g id="edge3" class="edge">
<title>InscriptionComponent&#45;&gt;UsersModule</title>
<path fill="none" stroke="black" d="M1155,-85.07C1155,-103.36 1155,-128.8 1155,-128.8 1155,-128.8 823.91,-128.8 823.91,-128.8"/>
<polygon fill="black" stroke="black" points="823.91,-125.3 813.91,-128.8 823.91,-132.3 823.91,-125.3"/>
</g>
<!-- MainUserComponent -->
<g id="node4" class="node">
<title>MainUserComponent</title>
<polygon fill="#ffffb3" stroke="black" points="1065.81,-84.8 928.19,-84.8 928.19,-48.8 1065.81,-48.8 1065.81,-84.8"/>
<text text-anchor="middle" x="997" y="-62.6" font-family="Times,serif" font-size="14.00">MainUserComponent</text>
</g>
<!-- MainUserComponent&#45;&gt;UsersModule -->
<g id="edge4" class="edge">
<title>MainUserComponent&#45;&gt;UsersModule</title>
<path fill="none" stroke="black" d="M997,-84.81C997,-100.85 997,-121.8 997,-121.8 997,-121.8 823.79,-121.8 823.79,-121.8"/>
<polygon fill="black" stroke="black" points="823.79,-118.3 813.79,-121.8 823.79,-125.3 823.79,-118.3"/>
</g>
<!-- ProfileComponent -->
<g id="node5" class="node">
<title>ProfileComponent</title>
<polygon fill="#ffffb3" stroke="black" points="910.93,-84.8 791.07,-84.8 791.07,-48.8 910.93,-48.8 910.93,-84.8"/>
<text text-anchor="middle" x="851" y="-62.6" font-family="Times,serif" font-size="14.00">ProfileComponent</text>
</g>
<!-- ProfileComponent&#45;&gt;UsersModule -->
<g id="edge5" class="edge">
<title>ProfileComponent&#45;&gt;UsersModule</title>
<path fill="none" stroke="black" d="M802.5,-84.91C802.5,-84.91 802.5,-103.79 802.5,-103.79"/>
<polygon fill="black" stroke="black" points="799,-103.79 802.5,-113.79 806,-103.79 799,-103.79"/>
</g>
<!-- UpdatePswFormComponent -->
<g id="node6" class="node">
<title>UpdatePswFormComponent</title>
<polygon fill="#ffffb3" stroke="black" points="773.93,-84.8 598.07,-84.8 598.07,-48.8 773.93,-48.8 773.93,-84.8"/>
<text text-anchor="middle" x="686" y="-62.6" font-family="Times,serif" font-size="14.00">UpdatePswFormComponent</text>
</g>
<!-- UpdatePswFormComponent&#45;&gt;UsersModule -->
<g id="edge6" class="edge">
<title>UpdatePswFormComponent&#45;&gt;UsersModule</title>
<path fill="none" stroke="black" d="M748,-84.91C748,-84.91 748,-103.79 748,-103.79"/>
<polygon fill="black" stroke="black" points="744.5,-103.79 748,-113.79 751.5,-103.79 744.5,-103.79"/>
</g>
<!-- UserComponent -->
<g id="node7" class="node">
<title>UserComponent</title>
<polygon fill="#ffffb3" stroke="black" points="579.76,-84.8 472.24,-84.8 472.24,-48.8 579.76,-48.8 579.76,-84.8"/>
<text text-anchor="middle" x="526" y="-62.6" font-family="Times,serif" font-size="14.00">UserComponent</text>
</g>
<!-- UserComponent&#45;&gt;UsersModule -->
<g id="edge7" class="edge">
<title>UserComponent&#45;&gt;UsersModule</title>
<path fill="none" stroke="black" d="M526,-84.81C526,-100.85 526,-121.8 526,-121.8 526,-121.8 712.2,-121.8 712.2,-121.8"/>
<polygon fill="black" stroke="black" points="712.2,-125.3 722.2,-121.8 712.2,-118.3 712.2,-125.3"/>
</g>
<!-- UserFormComponent -->
<g id="node8" class="node">
<title>UserFormComponent</title>
<polygon fill="#ffffb3" stroke="black" points="454.09,-84.8 315.91,-84.8 315.91,-48.8 454.09,-48.8 454.09,-84.8"/>
<text text-anchor="middle" x="385" y="-62.6" font-family="Times,serif" font-size="14.00">UserFormComponent</text>
</g>
<!-- UserFormComponent&#45;&gt;UsersModule -->
<g id="edge8" class="edge">
<title>UserFormComponent&#45;&gt;UsersModule</title>
<path fill="none" stroke="black" d="M385,-85.07C385,-103.36 385,-128.8 385,-128.8 385,-128.8 712.18,-128.8 712.18,-128.8"/>
<polygon fill="black" stroke="black" points="712.18,-132.3 722.18,-128.8 712.18,-125.3 712.18,-132.3"/>
</g>
<!-- UsersComponent -->
<g id="node9" class="node">
<title>UsersComponent</title>
<polygon fill="#ffffb3" stroke="black" points="297.7,-84.8 184.3,-84.8 184.3,-48.8 297.7,-48.8 297.7,-84.8"/>
<text text-anchor="middle" x="241" y="-62.6" font-family="Times,serif" font-size="14.00">UsersComponent</text>
</g>
<!-- UsersComponent&#45;&gt;UsersModule -->
<g id="edge9" class="edge">
<title>UsersComponent&#45;&gt;UsersModule</title>
<path fill="none" stroke="black" d="M241,-84.93C241,-105.37 241,-135.8 241,-135.8 241,-135.8 712.15,-135.8 712.15,-135.8"/>
<polygon fill="black" stroke="black" points="712.15,-139.3 722.15,-135.8 712.15,-132.3 712.15,-139.3"/>
</g>
<!-- UsersRoutingModule -->
<g id="node11" class="node">
<title>UsersRoutingModule</title>
<polygon fill="#8dd3c7" stroke="black" points="160.04,-84.8 157.04,-88.8 136.04,-88.8 133.04,-84.8 23.96,-84.8 23.96,-48.8 160.04,-48.8 160.04,-84.8"/>
<text text-anchor="middle" x="92" y="-62.6" font-family="Times,serif" font-size="14.00">UsersRoutingModule</text>
</g>
<!-- UsersRoutingModule&#45;&gt;UsersModule -->
<g id="edge10" class="edge">
<title>UsersRoutingModule&#45;&gt;UsersModule</title>
<path fill="none" stroke="black" d="M92,-84.81C92,-107.29 92,-142.8 92,-142.8 92,-142.8 712.07,-142.8 712.07,-142.8"/>
<polygon fill="black" stroke="black" points="712.07,-146.3 722.07,-142.8 712.07,-139.3 712.07,-146.3"/>
</g>
</g>
</svg>
