<?xml version="1.0" encoding="UTF-8" standalone="no"?>
<!DOCTYPE svg PUBLIC "-//W3C//DTD SVG 1.1//EN"
 "http://www.w3.org/Graphics/SVG/1.1/DTD/svg11.dtd">
<!-- Generated by graphviz version 2.47.3 (20210619.1520)
 -->
<!-- Title: dependencies Pages: 1 -->
<svg width="1095pt" height="174pt"
 viewBox="0.00 0.00 1095.00 173.80" xmlns="http://www.w3.org/2000/svg" xmlns:xlink="http://www.w3.org/1999/xlink">
<g id="graph0" class="graph" transform="scale(1 1) rotate(0) translate(4 169.8)">
<title>dependencies</title>
<polygon fill="white" stroke="transparent" points="-4,4 -4,-169.8 1091,-169.8 1091,4 -4,4"/>
<text text-anchor="middle" x="543.5" y="-8.2" font-family="sans-serif" font-size="14.00">dependencies</text>
<g id="clust1" class="cluster">
<title>cluster_ProductsModule</title>
<polygon fill="none" stroke="black" stroke-dasharray="1,5" points="8,-32.8 8,-157.8 1079,-157.8 1079,-32.8 8,-32.8"/>
</g>
<g id="clust2" class="cluster">
<title>cluster_ProductsModule_declarations</title>
<polygon fill="none" stroke="black" points="194,-40.8 194,-92.8 1071,-92.8 1071,-40.8 194,-40.8"/>
</g>
<g id="clust8" class="cluster">
<title>cluster_ProductsModule_imports</title>
<polygon fill="none" stroke="black" points="16,-40.8 16,-92.8 186,-92.8 186,-40.8 16,-40.8"/>
</g>
<!-- CategorieProduitComponent -->
<g id="node1" class="node">
<title>CategorieProduitComponent</title>
<polygon fill="#ffffb3" stroke="black" points="1063.48,-84.8 886.52,-84.8 886.52,-48.8 1063.48,-48.8 1063.48,-84.8"/>
<text text-anchor="middle" x="975" y="-62.6" font-family="Times,serif" font-size="14.00">CategorieProduitComponent</text>
</g>
<!-- ProductsModule -->
<g id="node6" class="node">
<title>ProductsModule</title>
<polygon fill="#8dd3c7" stroke="black" points="541.04,-149.8 538.04,-153.8 517.04,-153.8 514.04,-149.8 432.96,-149.8 432.96,-113.8 541.04,-113.8 541.04,-149.8"/>
<text text-anchor="middle" x="487" y="-127.6" font-family="Times,serif" font-size="14.00">ProductsModule</text>
</g>
<!-- CategorieProduitComponent&#45;&gt;ProductsModule -->
<g id="edge1" class="edge">
<title>CategorieProduitComponent&#45;&gt;ProductsModule</title>
<path fill="none" stroke="black" d="M975,-85.08C975,-106.12 975,-137.8 975,-137.8 975,-137.8 551.09,-137.8 551.09,-137.8"/>
<polygon fill="black" stroke="black" points="551.09,-134.3 541.09,-137.8 551.09,-141.3 551.09,-134.3"/>
</g>
<!-- FormCategorieproduitComponent -->
<g id="node2" class="node">
<title>FormCategorieproduitComponent</title>
<polygon fill="#ffffb3" stroke="black" points="868.03,-84.8 661.97,-84.8 661.97,-48.8 868.03,-48.8 868.03,-84.8"/>
<text text-anchor="middle" x="765" y="-62.6" font-family="Times,serif" font-size="14.00">FormCategorieproduitComponent</text>
</g>
<!-- FormCategorieproduitComponent&#45;&gt;ProductsModule -->
<g id="edge2" class="edge">
<title>FormCategorieproduitComponent&#45;&gt;ProductsModule</title>
<path fill="none" stroke="black" d="M765,-84.82C765,-102.17 765,-125.8 765,-125.8 765,-125.8 551.26,-125.8 551.26,-125.8"/>
<polygon fill="black" stroke="black" points="551.26,-122.3 541.26,-125.8 551.26,-129.3 551.26,-122.3"/>
</g>
<!-- FormProduitComponent -->
<g id="node3" class="node">
<title>FormProduitComponent</title>
<polygon fill="#ffffb3" stroke="black" points="643.39,-84.8 490.61,-84.8 490.61,-48.8 643.39,-48.8 643.39,-84.8"/>
<text text-anchor="middle" x="567" y="-62.6" font-family="Times,serif" font-size="14.00">FormProduitComponent</text>
</g>
<!-- FormProduitComponent&#45;&gt;ProductsModule -->
<g id="edge3" class="edge">
<title>FormProduitComponent&#45;&gt;ProductsModule</title>
<path fill="none" stroke="black" d="M515.91,-84.91C515.91,-84.91 515.91,-103.79 515.91,-103.79"/>
<polygon fill="black" stroke="black" points="512.41,-103.79 515.91,-113.79 519.41,-103.79 512.41,-103.79"/>
</g>
<!-- ProductsComponent -->
<g id="node4" class="node">
<title>ProductsComponent</title>
<polygon fill="#ffffb3" stroke="black" points="472.33,-84.8 341.67,-84.8 341.67,-48.8 472.33,-48.8 472.33,-84.8"/>
<text text-anchor="middle" x="407" y="-62.6" font-family="Times,serif" font-size="14.00">ProductsComponent</text>
</g>
<!-- ProductsComponent&#45;&gt;ProductsModule -->
<g id="edge4" class="edge">
<title>ProductsComponent&#45;&gt;ProductsModule</title>
<path fill="none" stroke="black" d="M452.45,-84.91C452.45,-84.91 452.45,-103.79 452.45,-103.79"/>
<polygon fill="black" stroke="black" points="448.95,-103.79 452.45,-113.79 455.95,-103.79 448.95,-103.79"/>
</g>
<!-- ProduitComponent -->
<g id="node5" class="node">
<title>ProduitComponent</title>
<polygon fill="#ffffb3" stroke="black" points="324.06,-84.8 201.94,-84.8 201.94,-48.8 324.06,-48.8 324.06,-84.8"/>
<text text-anchor="middle" x="263" y="-62.6" font-family="Times,serif" font-size="14.00">ProduitComponent</text>
</g>
<!-- ProduitComponent&#45;&gt;ProductsModule -->
<g id="edge5" class="edge">
<title>ProduitComponent&#45;&gt;ProductsModule</title>
<path fill="none" stroke="black" d="M263,-84.82C263,-102.17 263,-125.8 263,-125.8 263,-125.8 422.78,-125.8 422.78,-125.8"/>
<polygon fill="black" stroke="black" points="422.78,-129.3 432.78,-125.8 422.78,-122.3 422.78,-129.3"/>
</g>
<!-- ProductsRoutingModule -->
<g id="node7" class="node">
<title>ProductsRoutingModule</title>
<polygon fill="#8dd3c7" stroke="black" points="177.66,-84.8 174.66,-88.8 153.66,-88.8 150.66,-84.8 24.34,-84.8 24.34,-48.8 177.66,-48.8 177.66,-84.8"/>
<text text-anchor="middle" x="101" y="-62.6" font-family="Times,serif" font-size="14.00">ProductsRoutingModule</text>
</g>
<!-- ProductsRoutingModule&#45;&gt;ProductsModule -->
<g id="edge6" class="edge">
<title>ProductsRoutingModule&#45;&gt;ProductsModule</title>
<path fill="none" stroke="black" d="M101,-85.08C101,-106.12 101,-137.8 101,-137.8 101,-137.8 422.92,-137.8 422.92,-137.8"/>
<polygon fill="black" stroke="black" points="422.92,-141.3 432.92,-137.8 422.92,-134.3 422.92,-141.3"/>
</g>
</g>
</svg>
