<?xml version="1.0" encoding="UTF-8" standalone="no"?>
<!DOCTYPE svg PUBLIC "-//W3C//DTD SVG 1.1//EN"
 "http://www.w3.org/Graphics/SVG/1.1/DTD/svg11.dtd">
<!-- Generated by graphviz version 2.47.3 (20210619.1520)
 -->
<!-- Title: dependencies Pages: 1 -->
<svg width="1011pt" height="247pt"
 viewBox="0.00 0.00 1011.00 246.80" xmlns="http://www.w3.org/2000/svg" xmlns:xlink="http://www.w3.org/1999/xlink">
<g id="graph0" class="graph" transform="scale(1 1) rotate(0) translate(4 242.8)">
<title>dependencies</title>
<polygon fill="white" stroke="transparent" points="-4,4 -4,-242.8 1007,-242.8 1007,4 -4,4"/>
<text text-anchor="middle" x="501.5" y="-8.2" font-family="sans-serif" font-size="14.00">dependencies</text>
<g id="clust1" class="cluster">
<title>cluster_CodePromoModule</title>
<polygon fill="none" stroke="black" stroke-dasharray="1,5" points="8,-32.8 8,-230.8 995,-230.8 995,-32.8 8,-32.8"/>
</g>
<g id="clust2" class="cluster">
<title>cluster_CodePromoModule_declarations</title>
<polygon fill="none" stroke="black" points="212,-40.8 212,-92.8 987,-92.8 987,-40.8 212,-40.8"/>
</g>
<g id="clust8" class="cluster">
<title>cluster_CodePromoModule_exports</title>
<polygon fill="none" stroke="black" points="398,-170.8 398,-222.8 626,-222.8 626,-170.8 398,-170.8"/>
</g>
<g id="clust7" class="cluster">
<title>cluster_CodePromoModule_imports</title>
<polygon fill="none" stroke="black" points="16,-40.8 16,-92.8 204,-92.8 204,-40.8 16,-40.8"/>
</g>
<!-- CodePromoComponent -->
<g id="node1" class="node">
<title>CodePromoComponent</title>
<polygon fill="#ffffb3" stroke="black" points="979.22,-84.8 830.78,-84.8 830.78,-48.8 979.22,-48.8 979.22,-84.8"/>
<text text-anchor="middle" x="905" y="-62.6" font-family="Times,serif" font-size="14.00">CodePromoComponent</text>
</g>
<!-- CodePromoModule -->
<g id="node5" class="node">
<title>CodePromoModule</title>
<polygon fill="#8dd3c7" stroke="black" points="575.44,-149.8 572.44,-153.8 551.44,-153.8 548.44,-149.8 448.56,-149.8 448.56,-113.8 575.44,-113.8 575.44,-149.8"/>
<text text-anchor="middle" x="512" y="-127.6" font-family="Times,serif" font-size="14.00">CodePromoModule</text>
</g>
<!-- CodePromoComponent&#45;&gt;CodePromoModule -->
<g id="edge1" class="edge">
<title>CodePromoComponent&#45;&gt;CodePromoModule</title>
<path fill="none" stroke="black" d="M905,-85.08C905,-106.12 905,-137.8 905,-137.8 905,-137.8 585.58,-137.8 585.58,-137.8"/>
<polygon fill="black" stroke="black" points="585.58,-134.3 575.58,-137.8 585.58,-141.3 585.58,-134.3"/>
</g>
<!-- FormCodePromoComponent -->
<g id="node2" class="node">
<title>FormCodePromoComponent</title>
<polygon fill="#ffffb3" stroke="black" points="813.05,-84.8 634.95,-84.8 634.95,-48.8 813.05,-48.8 813.05,-84.8"/>
<text text-anchor="middle" x="724" y="-62.6" font-family="Times,serif" font-size="14.00">FormCodePromoComponent</text>
</g>
<!-- FormCodePromoComponent&#45;&gt;CodePromoModule -->
<g id="edge2" class="edge">
<title>FormCodePromoComponent&#45;&gt;CodePromoModule</title>
<path fill="none" stroke="black" d="M724,-84.82C724,-102.17 724,-125.8 724,-125.8 724,-125.8 585.32,-125.8 585.32,-125.8"/>
<polygon fill="black" stroke="black" points="585.32,-122.3 575.32,-125.8 585.32,-129.3 585.32,-122.3"/>
</g>
<!-- FormFrontCodePromoComponent -->
<g id="node3" class="node">
<title>FormFrontCodePromoComponent</title>
<polygon fill="#ffffb3" stroke="black" points="616.39,-84.8 407.61,-84.8 407.61,-48.8 616.39,-48.8 616.39,-84.8"/>
<text text-anchor="middle" x="512" y="-62.6" font-family="Times,serif" font-size="14.00">FormFrontCodePromoComponent</text>
</g>
<!-- FormFrontCodePromoComponent&#45;&gt;CodePromoModule -->
<g id="edge3" class="edge">
<title>FormFrontCodePromoComponent&#45;&gt;CodePromoModule</title>
<path fill="none" stroke="black" d="M512,-84.91C512,-84.91 512,-103.79 512,-103.79"/>
<polygon fill="black" stroke="black" points="508.5,-103.79 512,-113.79 515.5,-103.79 508.5,-103.79"/>
</g>
<!-- ListCodePromoComponent -->
<g id="node4" class="node">
<title>ListCodePromoComponent</title>
<polygon fill="#ffffb3" stroke="black" points="390,-84.8 220,-84.8 220,-48.8 390,-48.8 390,-84.8"/>
<text text-anchor="middle" x="305" y="-62.6" font-family="Times,serif" font-size="14.00">ListCodePromoComponent</text>
</g>
<!-- ListCodePromoComponent&#45;&gt;CodePromoModule -->
<g id="edge4" class="edge">
<title>ListCodePromoComponent&#45;&gt;CodePromoModule</title>
<path fill="none" stroke="black" d="M305,-84.82C305,-102.17 305,-125.8 305,-125.8 305,-125.8 438.77,-125.8 438.77,-125.8"/>
<polygon fill="black" stroke="black" points="438.77,-129.3 448.77,-125.8 438.77,-122.3 438.77,-129.3"/>
</g>
<!-- FormFrontCodePromoComponent  -->
<g id="node7" class="node">
<title>FormFrontCodePromoComponent </title>
<polygon fill="#fb8072" stroke="black" points="618.39,-214.8 405.61,-214.8 405.61,-178.8 618.39,-178.8 618.39,-214.8"/>
<text text-anchor="middle" x="512" y="-192.6" font-family="Times,serif" font-size="14.00">FormFrontCodePromoComponent </text>
</g>
<!-- CodePromoModule&#45;&gt;FormFrontCodePromoComponent  -->
<g id="edge6" class="edge">
<title>CodePromoModule&#45;&gt;FormFrontCodePromoComponent </title>
<path fill="none" stroke="black" stroke-dasharray="5,2" d="M512,-149.91C512,-149.91 512,-168.79 512,-168.79"/>
<polygon fill="black" stroke="black" points="508.5,-168.79 512,-178.79 515.5,-168.79 508.5,-168.79"/>
</g>
<!-- CodePromoRoutingModule -->
<g id="node6" class="node">
<title>CodePromoRoutingModule</title>
<polygon fill="#8dd3c7" stroke="black" points="195.55,-84.8 192.55,-88.8 171.55,-88.8 168.55,-84.8 24.45,-84.8 24.45,-48.8 195.55,-48.8 195.55,-84.8"/>
<text text-anchor="middle" x="110" y="-62.6" font-family="Times,serif" font-size="14.00">CodePromoRoutingModule</text>
</g>
<!-- CodePromoRoutingModule&#45;&gt;CodePromoModule -->
<g id="edge5" class="edge">
<title>CodePromoRoutingModule&#45;&gt;CodePromoModule</title>
<path fill="none" stroke="black" d="M110,-85.08C110,-106.12 110,-137.8 110,-137.8 110,-137.8 438.75,-137.8 438.75,-137.8"/>
<polygon fill="black" stroke="black" points="438.75,-141.3 448.75,-137.8 438.75,-134.3 438.75,-141.3"/>
</g>
</g>
</svg>
