<?xml version="1.0" encoding="UTF-8" standalone="no"?>
<!DOCTYPE svg PUBLIC "-//W3C//DTD SVG 1.1//EN"
 "http://www.w3.org/Graphics/SVG/1.1/DTD/svg11.dtd">
<!-- Generated by graphviz version 2.47.3 (20210619.1520)
 -->
<!-- Title: dependencies Pages: 1 -->
<svg width="1485pt" height="174pt"
 viewBox="0.00 0.00 1485.00 173.80" xmlns="http://www.w3.org/2000/svg" xmlns:xlink="http://www.w3.org/1999/xlink">
<g id="graph0" class="graph" transform="scale(1 1) rotate(0) translate(4 169.8)">
<title>dependencies</title>
<polygon fill="white" stroke="transparent" points="-4,4 -4,-169.8 1481,-169.8 1481,4 -4,4"/>
<text text-anchor="middle" x="738.5" y="-8.2" font-family="sans-serif" font-size="14.00">dependencies</text>
<g id="clust1" class="cluster">
<title>cluster_FacturesModule</title>
<polygon fill="none" stroke="black" stroke-dasharray="1,5" points="8,-32.8 8,-157.8 1469,-157.8 1469,-32.8 8,-32.8"/>
</g>
<g id="clust2" class="cluster">
<title>cluster_FacturesModule_declarations</title>
<polygon fill="none" stroke="black" points="336,-40.8 336,-92.8 1461,-92.8 1461,-40.8 336,-40.8"/>
</g>
<g id="clust10" class="cluster">
<title>cluster_FacturesModule_imports</title>
<polygon fill="none" stroke="black" points="16,-40.8 16,-92.8 328,-92.8 328,-40.8 16,-40.8"/>
</g>
<!-- CommandeComponent -->
<g id="node1" class="node">
<title>CommandeComponent</title>
<polygon fill="#ffffb3" stroke="black" points="1452.88,-84.8 1307.12,-84.8 1307.12,-48.8 1452.88,-48.8 1452.88,-84.8"/>
<text text-anchor="middle" x="1380" y="-62.6" font-family="Times,serif" font-size="14.00">CommandeComponent</text>
</g>
<!-- FacturesModule -->
<g id="node8" class="node">
<title>FacturesModule</title>
<polygon fill="#8dd3c7" stroke="black" points="771.47,-149.8 768.47,-153.8 747.47,-153.8 744.47,-149.8 664.53,-149.8 664.53,-113.8 771.47,-113.8 771.47,-149.8"/>
<text text-anchor="middle" x="718" y="-127.6" font-family="Times,serif" font-size="14.00">FacturesModule</text>
</g>
<!-- CommandeComponent&#45;&gt;FacturesModule -->
<g id="edge1" class="edge">
<title>CommandeComponent&#45;&gt;FacturesModule</title>
<path fill="none" stroke="black" d="M1380,-84.81C1380,-107.29 1380,-142.8 1380,-142.8 1380,-142.8 781.61,-142.8 781.61,-142.8"/>
<polygon fill="black" stroke="black" points="781.61,-139.3 771.61,-142.8 781.61,-146.3 781.61,-139.3"/>
</g>
<!-- FactureComponent -->
<g id="node2" class="node">
<title>FactureComponent</title>
<polygon fill="#ffffb3" stroke="black" points="1288.81,-84.8 1165.19,-84.8 1165.19,-48.8 1288.81,-48.8 1288.81,-84.8"/>
<text text-anchor="middle" x="1227" y="-62.6" font-family="Times,serif" font-size="14.00">FactureComponent</text>
</g>
<!-- FactureComponent&#45;&gt;FacturesModule -->
<g id="edge2" class="edge">
<title>FactureComponent&#45;&gt;FacturesModule</title>
<path fill="none" stroke="black" d="M1227,-84.93C1227,-105.37 1227,-135.8 1227,-135.8 1227,-135.8 781.51,-135.8 781.51,-135.8"/>
<polygon fill="black" stroke="black" points="781.51,-132.3 771.51,-135.8 781.51,-139.3 781.51,-132.3"/>
</g>
<!-- FacturesComponent -->
<g id="node3" class="node">
<title>FacturesComponent</title>
<polygon fill="#ffffb3" stroke="black" points="1147.25,-84.8 1018.75,-84.8 1018.75,-48.8 1147.25,-48.8 1147.25,-84.8"/>
<text text-anchor="middle" x="1083" y="-62.6" font-family="Times,serif" font-size="14.00">FacturesComponent</text>
</g>
<!-- FacturesComponent&#45;&gt;FacturesModule -->
<g id="edge3" class="edge">
<title>FacturesComponent&#45;&gt;FacturesModule</title>
<path fill="none" stroke="black" d="M1083,-85.07C1083,-103.36 1083,-128.8 1083,-128.8 1083,-128.8 781.86,-128.8 781.86,-128.8"/>
<polygon fill="black" stroke="black" points="781.86,-125.3 771.86,-128.8 781.86,-132.3 781.86,-125.3"/>
</g>
<!-- FormDetailFactureComponent -->
<g id="node4" class="node">
<title>FormDetailFactureComponent</title>
<polygon fill="#ffffb3" stroke="black" points="1000.85,-84.8 813.15,-84.8 813.15,-48.8 1000.85,-48.8 1000.85,-84.8"/>
<text text-anchor="middle" x="907" y="-62.6" font-family="Times,serif" font-size="14.00">FormDetailFactureComponent</text>
</g>
<!-- FormDetailFactureComponent&#45;&gt;FacturesModule -->
<g id="edge4" class="edge">
<title>FormDetailFactureComponent&#45;&gt;FacturesModule</title>
<path fill="none" stroke="black" d="M907,-84.81C907,-100.85 907,-121.8 907,-121.8 907,-121.8 781.65,-121.8 781.65,-121.8"/>
<polygon fill="black" stroke="black" points="781.65,-118.3 771.65,-121.8 781.65,-125.3 781.65,-118.3"/>
</g>
<!-- FormFactureComponent -->
<g id="node5" class="node">
<title>FormFactureComponent</title>
<polygon fill="#ffffb3" stroke="black" points="794.64,-84.8 641.36,-84.8 641.36,-48.8 794.64,-48.8 794.64,-84.8"/>
<text text-anchor="middle" x="718" y="-62.6" font-family="Times,serif" font-size="14.00">FormFactureComponent</text>
</g>
<!-- FormFactureComponent&#45;&gt;FacturesModule -->
<g id="edge5" class="edge">
<title>FormFactureComponent&#45;&gt;FacturesModule</title>
<path fill="none" stroke="black" d="M718,-84.91C718,-84.91 718,-103.79 718,-103.79"/>
<polygon fill="black" stroke="black" points="714.5,-103.79 718,-113.79 721.5,-103.79 714.5,-103.79"/>
</g>
<!-- PanierComponent -->
<g id="node6" class="node">
<title>PanierComponent</title>
<polygon fill="#ffffb3" stroke="black" points="623.6,-84.8 506.4,-84.8 506.4,-48.8 623.6,-48.8 623.6,-84.8"/>
<text text-anchor="middle" x="565" y="-62.6" font-family="Times,serif" font-size="14.00">PanierComponent</text>
</g>
<!-- PanierComponent&#45;&gt;FacturesModule -->
<g id="edge6" class="edge">
<title>PanierComponent&#45;&gt;FacturesModule</title>
<path fill="none" stroke="black" d="M565,-84.81C565,-100.85 565,-121.8 565,-121.8 565,-121.8 654.49,-121.8 654.49,-121.8"/>
<polygon fill="black" stroke="black" points="654.49,-125.3 664.49,-121.8 654.49,-118.3 654.49,-125.3"/>
</g>
<!-- PanierVideComponent -->
<g id="node7" class="node">
<title>PanierVideComponent</title>
<polygon fill="#ffffb3" stroke="black" points="488.31,-84.8 343.69,-84.8 343.69,-48.8 488.31,-48.8 488.31,-84.8"/>
<text text-anchor="middle" x="416" y="-62.6" font-family="Times,serif" font-size="14.00">PanierVideComponent</text>
</g>
<!-- PanierVideComponent&#45;&gt;FacturesModule -->
<g id="edge7" class="edge">
<title>PanierVideComponent&#45;&gt;FacturesModule</title>
<path fill="none" stroke="black" d="M416,-85.07C416,-103.36 416,-128.8 416,-128.8 416,-128.8 654.36,-128.8 654.36,-128.8"/>
<polygon fill="black" stroke="black" points="654.36,-132.3 664.36,-128.8 654.36,-125.3 654.36,-132.3"/>
</g>
<!-- CodePromoModule -->
<g id="node9" class="node">
<title>CodePromoModule</title>
<polygon fill="#8dd3c7" stroke="black" points="320.44,-84.8 317.44,-88.8 296.44,-88.8 293.44,-84.8 193.56,-84.8 193.56,-48.8 320.44,-48.8 320.44,-84.8"/>
<text text-anchor="middle" x="257" y="-62.6" font-family="Times,serif" font-size="14.00">CodePromoModule</text>
</g>
<!-- CodePromoModule&#45;&gt;FacturesModule -->
<g id="edge8" class="edge">
<title>CodePromoModule&#45;&gt;FacturesModule</title>
<path fill="none" stroke="black" d="M257,-84.93C257,-105.37 257,-135.8 257,-135.8 257,-135.8 654.22,-135.8 654.22,-135.8"/>
<polygon fill="black" stroke="black" points="654.22,-139.3 664.22,-135.8 654.22,-132.3 654.22,-139.3"/>
</g>
<!-- FacturesRoutingModule -->
<g id="node10" class="node">
<title>FacturesRoutingModule</title>
<polygon fill="#8dd3c7" stroke="black" points="176.09,-84.8 173.09,-88.8 152.09,-88.8 149.09,-84.8 23.91,-84.8 23.91,-48.8 176.09,-48.8 176.09,-84.8"/>
<text text-anchor="middle" x="100" y="-62.6" font-family="Times,serif" font-size="14.00">FacturesRoutingModule</text>
</g>
<!-- FacturesRoutingModule&#45;&gt;FacturesModule -->
<g id="edge9" class="edge">
<title>FacturesRoutingModule&#45;&gt;FacturesModule</title>
<path fill="none" stroke="black" d="M100,-84.81C100,-107.29 100,-142.8 100,-142.8 100,-142.8 654.51,-142.8 654.51,-142.8"/>
<polygon fill="black" stroke="black" points="654.51,-146.3 664.51,-142.8 654.51,-139.3 654.51,-146.3"/>
</g>
</g>
</svg>
