<?xml version="1.0" encoding="UTF-8" standalone="no"?>
<!DOCTYPE svg PUBLIC "-//W3C//DTD SVG 1.1//EN"
 "http://www.w3.org/Graphics/SVG/1.1/DTD/svg11.dtd">
<!-- Generated by graphviz version 2.47.3 (20210619.1520)
 -->
<!-- Title: dependencies Pages: 1 -->
<svg width="880pt" height="247pt"
 viewBox="0.00 0.00 880.00 246.80" xmlns="http://www.w3.org/2000/svg" xmlns:xlink="http://www.w3.org/1999/xlink">
<g id="graph0" class="graph" transform="scale(1 1) rotate(0) translate(4 242.8)">
<title>dependencies</title>
<polygon fill="white" stroke="transparent" points="-4,4 -4,-242.8 876,-242.8 876,4 -4,4"/>
<text text-anchor="middle" x="436" y="-8.2" font-family="sans-serif" font-size="14.00">dependencies</text>
<g id="clust1" class="cluster">
<title>cluster_AppModule</title>
<polygon fill="none" stroke="black" stroke-dasharray="1,5" points="8,-32.8 8,-230.8 864,-230.8 864,-32.8 8,-32.8"/>
</g>
<g id="clust2" class="cluster">
<title>cluster_AppModule_declarations</title>
<polygon fill="none" stroke="black" points="168,-40.8 168,-92.8 856,-92.8 856,-40.8 168,-40.8"/>
</g>
<g id="clust8" class="cluster">
<title>cluster_AppModule_imports</title>
<polygon fill="none" stroke="black" points="16,-40.8 16,-92.8 160,-92.8 160,-40.8 16,-40.8"/>
</g>
<g id="clust10" class="cluster">
<title>cluster_AppModule_bootstrap</title>
<polygon fill="none" stroke="black" points="399,-170.8 399,-222.8 523,-222.8 523,-170.8 399,-170.8"/>
</g>
<!-- AppComponent -->
<g id="node1" class="node">
<title>AppComponent</title>
<polygon fill="#ffffb3" stroke="black" points="847.94,-84.8 742.06,-84.8 742.06,-48.8 847.94,-48.8 847.94,-84.8"/>
<text text-anchor="middle" x="795" y="-62.6" font-family="Times,serif" font-size="14.00">AppComponent</text>
</g>
<!-- AppModule -->
<g id="node6" class="node">
<title>AppModule</title>
<polygon fill="#8dd3c7" stroke="black" points="502.66,-149.8 499.66,-153.8 478.66,-153.8 475.66,-149.8 419.34,-149.8 419.34,-113.8 502.66,-113.8 502.66,-149.8"/>
<text text-anchor="middle" x="461" y="-127.6" font-family="Times,serif" font-size="14.00">AppModule</text>
</g>
<!-- AppComponent&#45;&gt;AppModule -->
<g id="edge1" class="edge">
<title>AppComponent&#45;&gt;AppModule</title>
<path fill="none" stroke="black" d="M795,-85.08C795,-106.12 795,-137.8 795,-137.8 795,-137.8 512.96,-137.8 512.96,-137.8"/>
<polygon fill="black" stroke="black" points="512.96,-134.3 502.96,-137.8 512.96,-141.3 512.96,-134.3"/>
</g>
<!-- FooterComponent -->
<g id="node2" class="node">
<title>FooterComponent</title>
<polygon fill="#ffffb3" stroke="black" points="723.88,-84.8 606.12,-84.8 606.12,-48.8 723.88,-48.8 723.88,-84.8"/>
<text text-anchor="middle" x="665" y="-62.6" font-family="Times,serif" font-size="14.00">FooterComponent</text>
</g>
<!-- FooterComponent&#45;&gt;AppModule -->
<g id="edge2" class="edge">
<title>FooterComponent&#45;&gt;AppModule</title>
<path fill="none" stroke="black" d="M665,-84.82C665,-102.17 665,-125.8 665,-125.8 665,-125.8 512.77,-125.8 512.77,-125.8"/>
<polygon fill="black" stroke="black" points="512.77,-122.3 502.77,-125.8 512.77,-129.3 512.77,-122.3"/>
</g>
<!-- HomeComponent -->
<g id="node3" class="node">
<title>HomeComponent</title>
<polygon fill="#ffffb3" stroke="black" points="587.55,-84.8 472.45,-84.8 472.45,-48.8 587.55,-48.8 587.55,-84.8"/>
<text text-anchor="middle" x="530" y="-62.6" font-family="Times,serif" font-size="14.00">HomeComponent</text>
</g>
<!-- HomeComponent&#45;&gt;AppModule -->
<g id="edge3" class="edge">
<title>HomeComponent&#45;&gt;AppModule</title>
<path fill="none" stroke="black" d="M487.53,-84.91C487.53,-84.91 487.53,-103.79 487.53,-103.79"/>
<polygon fill="black" stroke="black" points="484.03,-103.79 487.53,-113.79 491.03,-103.79 484.03,-103.79"/>
</g>
<!-- NavbarComponent -->
<g id="node4" class="node">
<title>NavbarComponent</title>
<polygon fill="#ffffb3" stroke="black" points="454.03,-84.8 331.97,-84.8 331.97,-48.8 454.03,-48.8 454.03,-84.8"/>
<text text-anchor="middle" x="393" y="-62.6" font-family="Times,serif" font-size="14.00">NavbarComponent</text>
</g>
<!-- NavbarComponent&#45;&gt;AppModule -->
<g id="edge4" class="edge">
<title>NavbarComponent&#45;&gt;AppModule</title>
<path fill="none" stroke="black" d="M436.72,-84.91C436.72,-84.91 436.72,-103.79 436.72,-103.79"/>
<polygon fill="black" stroke="black" points="433.22,-103.79 436.72,-113.79 440.22,-103.79 433.22,-103.79"/>
</g>
<!-- SidemenuComponent -->
<g id="node5" class="node">
<title>SidemenuComponent</title>
<polygon fill="#ffffb3" stroke="black" points="313.83,-84.8 176.17,-84.8 176.17,-48.8 313.83,-48.8 313.83,-84.8"/>
<text text-anchor="middle" x="245" y="-62.6" font-family="Times,serif" font-size="14.00">SidemenuComponent</text>
</g>
<!-- SidemenuComponent&#45;&gt;AppModule -->
<g id="edge5" class="edge">
<title>SidemenuComponent&#45;&gt;AppModule</title>
<path fill="none" stroke="black" d="M245,-84.82C245,-102.17 245,-125.8 245,-125.8 245,-125.8 409.1,-125.8 409.1,-125.8"/>
<polygon fill="black" stroke="black" points="409.1,-129.3 419.1,-125.8 409.1,-122.3 409.1,-129.3"/>
</g>
<!-- AppComponent  -->
<g id="node8" class="node">
<title>AppComponent </title>
<polygon fill="#80b1d3" stroke="black" points="515.44,-214.8 406.56,-214.8 406.56,-178.8 515.44,-178.8 515.44,-214.8"/>
<text text-anchor="middle" x="461" y="-192.6" font-family="Times,serif" font-size="14.00">AppComponent </text>
</g>
<!-- AppModule&#45;&gt;AppComponent  -->
<g id="edge7" class="edge">
<title>AppModule&#45;&gt;AppComponent </title>
<path fill="none" stroke="black" stroke-dasharray="1,5" d="M461,-149.91C461,-149.91 461,-168.79 461,-168.79"/>
<polygon fill="black" stroke="black" points="457.5,-168.79 461,-178.79 464.5,-168.79 457.5,-168.79"/>
</g>
<!-- AppRoutingModule -->
<g id="node7" class="node">
<title>AppRoutingModule</title>
<polygon fill="#8dd3c7" stroke="black" points="152.27,-84.8 149.27,-88.8 128.27,-88.8 125.27,-84.8 23.73,-84.8 23.73,-48.8 152.27,-48.8 152.27,-84.8"/>
<text text-anchor="middle" x="88" y="-62.6" font-family="Times,serif" font-size="14.00">AppRoutingModule</text>
</g>
<!-- AppRoutingModule&#45;&gt;AppModule -->
<g id="edge6" class="edge">
<title>AppRoutingModule&#45;&gt;AppModule</title>
<path fill="none" stroke="black" d="M88,-85.08C88,-106.12 88,-137.8 88,-137.8 88,-137.8 409.3,-137.8 409.3,-137.8"/>
<polygon fill="black" stroke="black" points="409.3,-141.3 419.3,-137.8 409.3,-134.3 409.3,-141.3"/>
</g>
</g>
</svg>
