<?xml version="1.0" encoding="UTF-8" standalone="no"?>
<!DOCTYPE svg PUBLIC "-//W3C//DTD SVG 1.1//EN"
 "http://www.w3.org/Graphics/SVG/1.1/DTD/svg11.dtd">
<!-- Generated by graphviz version 2.47.3 (20210619.1520)
 -->
<!-- Title: dependencies Pages: 1 -->
<svg width="585pt" height="174pt"
 viewBox="0.00 0.00 585.00 173.80" xmlns="http://www.w3.org/2000/svg" xmlns:xlink="http://www.w3.org/1999/xlink">
<g id="graph0" class="graph" transform="scale(1 1) rotate(0) translate(4 169.8)">
<title>dependencies</title>
<polygon fill="white" stroke="transparent" points="-4,4 -4,-169.8 581,-169.8 581,4 -4,4"/>
<text text-anchor="middle" x="288.5" y="-8.2" font-family="sans-serif" font-size="14.00">dependencies</text>
<g id="clust1" class="cluster">
<title>cluster_LikeDislikeModule</title>
<polygon fill="none" stroke="black" stroke-dasharray="1,5" points="8,-32.8 8,-157.8 569,-157.8 569,-32.8 8,-32.8"/>
</g>
<g id="clust2" class="cluster">
<title>cluster_LikeDislikeModule_declarations</title>
<polygon fill="none" stroke="black" points="210,-40.8 210,-92.8 561,-92.8 561,-40.8 210,-40.8"/>
</g>
<g id="clust5" class="cluster">
<title>cluster_LikeDislikeModule_imports</title>
<polygon fill="none" stroke="black" points="16,-40.8 16,-92.8 202,-92.8 202,-40.8 16,-40.8"/>
</g>
<!-- LikeDislikeComponent -->
<g id="node1" class="node">
<title>LikeDislikeComponent</title>
<polygon fill="#ffffb3" stroke="black" points="552.93,-84.8 405.07,-84.8 405.07,-48.8 552.93,-48.8 552.93,-84.8"/>
<text text-anchor="middle" x="479" y="-62.6" font-family="Times,serif" font-size="14.00">LikeDislikeComponent</text>
</g>
<!-- LikeDislikeModule -->
<g id="node3" class="node">
<title>LikeDislikeModule</title>
<polygon fill="#8dd3c7" stroke="black" points="365.65,-149.8 362.65,-153.8 341.65,-153.8 338.65,-149.8 240.35,-149.8 240.35,-113.8 365.65,-113.8 365.65,-149.8"/>
<text text-anchor="middle" x="303" y="-127.6" font-family="Times,serif" font-size="14.00">LikeDislikeModule</text>
</g>
<!-- LikeDislikeComponent&#45;&gt;LikeDislikeModule -->
<g id="edge1" class="edge">
<title>LikeDislikeComponent&#45;&gt;LikeDislikeModule</title>
<path fill="none" stroke="black" d="M479,-84.91C479,-104.14 479,-131.8 479,-131.8 479,-131.8 376.04,-131.8 376.04,-131.8"/>
<polygon fill="black" stroke="black" points="376.04,-128.3 366.04,-131.8 376.04,-135.3 376.04,-128.3"/>
</g>
<!-- ListLikeDislikeComponent -->
<g id="node2" class="node">
<title>ListLikeDislikeComponent</title>
<polygon fill="#ffffb3" stroke="black" points="387.71,-84.8 218.29,-84.8 218.29,-48.8 387.71,-48.8 387.71,-84.8"/>
<text text-anchor="middle" x="303" y="-62.6" font-family="Times,serif" font-size="14.00">ListLikeDislikeComponent</text>
</g>
<!-- ListLikeDislikeComponent&#45;&gt;LikeDislikeModule -->
<g id="edge2" class="edge">
<title>ListLikeDislikeComponent&#45;&gt;LikeDislikeModule</title>
<path fill="none" stroke="black" d="M303,-84.91C303,-84.91 303,-103.79 303,-103.79"/>
<polygon fill="black" stroke="black" points="299.5,-103.79 303,-113.79 306.5,-103.79 299.5,-103.79"/>
</g>
<!-- LikeDislikeRoutingModule -->
<g id="node4" class="node">
<title>LikeDislikeRoutingModule</title>
<polygon fill="#8dd3c7" stroke="black" points="194.26,-84.8 191.26,-88.8 170.26,-88.8 167.26,-84.8 23.74,-84.8 23.74,-48.8 194.26,-48.8 194.26,-84.8"/>
<text text-anchor="middle" x="109" y="-62.6" font-family="Times,serif" font-size="14.00">LikeDislikeRoutingModule</text>
</g>
<!-- LikeDislikeRoutingModule&#45;&gt;LikeDislikeModule -->
<g id="edge3" class="edge">
<title>LikeDislikeRoutingModule&#45;&gt;LikeDislikeModule</title>
<path fill="none" stroke="black" d="M109,-84.91C109,-104.14 109,-131.8 109,-131.8 109,-131.8 230.28,-131.8 230.28,-131.8"/>
<polygon fill="black" stroke="black" points="230.28,-135.3 240.28,-131.8 230.28,-128.3 230.28,-135.3"/>
</g>
</g>
</svg>
