<?xml version="1.0" encoding="UTF-8" standalone="no"?>
<!DOCTYPE svg PUBLIC "-//W3C//DTD SVG 1.1//EN"
 "http://www.w3.org/Graphics/SVG/1.1/DTD/svg11.dtd">
<!-- Generated by graphviz version 2.47.3 (20210619.1520)
 -->
<!-- Title: dependencies Pages: 1 -->
<svg width="1442pt" height="174pt"
 viewBox="0.00 0.00 1442.00 173.80" xmlns="http://www.w3.org/2000/svg" xmlns:xlink="http://www.w3.org/1999/xlink">
<g id="graph0" class="graph" transform="scale(1 1) rotate(0) translate(4 169.8)">
<title>dependencies</title>
<polygon fill="white" stroke="transparent" points="-4,4 -4,-169.8 1438,-169.8 1438,4 -4,4"/>
<text text-anchor="middle" x="717" y="-8.2" font-family="sans-serif" font-size="14.00">dependencies</text>
<g id="clust1" class="cluster">
<title>cluster_ReclamationsModule</title>
<polygon fill="none" stroke="black" stroke-dasharray="1,5" points="8,-32.8 8,-157.8 1426,-157.8 1426,-32.8 8,-32.8"/>
</g>
<g id="clust2" class="cluster">
<title>cluster_ReclamationsModule_declarations</title>
<polygon fill="none" stroke="black" points="220,-40.8 220,-92.8 1418,-92.8 1418,-40.8 220,-40.8"/>
</g>
<g id="clust9" class="cluster">
<title>cluster_ReclamationsModule_imports</title>
<polygon fill="none" stroke="black" points="16,-40.8 16,-92.8 212,-92.8 212,-40.8 16,-40.8"/>
</g>
<!-- FormReclamationComponent -->
<g id="node1" class="node">
<title>FormReclamationComponent</title>
<polygon fill="#ffffb3" stroke="black" points="1410.42,-84.8 1227.58,-84.8 1227.58,-48.8 1410.42,-48.8 1410.42,-84.8"/>
<text text-anchor="middle" x="1319" y="-62.6" font-family="Times,serif" font-size="14.00">FormReclamationComponent</text>
</g>
<!-- ReclamationsModule -->
<g id="node7" class="node">
<title>ReclamationsModule</title>
<polygon fill="#8dd3c7" stroke="black" points="784.75,-149.8 781.75,-153.8 760.75,-153.8 757.75,-149.8 649.25,-149.8 649.25,-113.8 784.75,-113.8 784.75,-149.8"/>
<text text-anchor="middle" x="717" y="-127.6" font-family="Times,serif" font-size="14.00">ReclamationsModule</text>
</g>
<!-- FormReclamationComponent&#45;&gt;ReclamationsModule -->
<g id="edge1" class="edge">
<title>FormReclamationComponent&#45;&gt;ReclamationsModule</title>
<path fill="none" stroke="black" d="M1319,-85.09C1319,-107.01 1319,-140.8 1319,-140.8 1319,-140.8 794.89,-140.8 794.89,-140.8"/>
<polygon fill="black" stroke="black" points="794.89,-137.3 784.89,-140.8 794.89,-144.3 794.89,-137.3"/>
</g>
<!-- FormReponsereclamationComponent -->
<g id="node2" class="node">
<title>FormReponsereclamationComponent</title>
<polygon fill="#ffffb3" stroke="black" points="1209.96,-84.8 984.04,-84.8 984.04,-48.8 1209.96,-48.8 1209.96,-84.8"/>
<text text-anchor="middle" x="1097" y="-62.6" font-family="Times,serif" font-size="14.00">FormReponsereclamationComponent</text>
</g>
<!-- FormReponsereclamationComponent&#45;&gt;ReclamationsModule -->
<g id="edge2" class="edge">
<title>FormReponsereclamationComponent&#45;&gt;ReclamationsModule</title>
<path fill="none" stroke="black" d="M1097,-84.91C1097,-104.14 1097,-131.8 1097,-131.8 1097,-131.8 794.94,-131.8 794.94,-131.8"/>
<polygon fill="black" stroke="black" points="794.94,-128.3 784.94,-131.8 794.94,-135.3 794.94,-128.3"/>
</g>
<!-- ReclamationComponent -->
<g id="node3" class="node">
<title>ReclamationComponent</title>
<polygon fill="#ffffb3" stroke="black" points="966.09,-84.8 813.91,-84.8 813.91,-48.8 966.09,-48.8 966.09,-84.8"/>
<text text-anchor="middle" x="890" y="-62.6" font-family="Times,serif" font-size="14.00">ReclamationComponent</text>
</g>
<!-- ReclamationComponent&#45;&gt;ReclamationsModule -->
<g id="edge3" class="edge">
<title>ReclamationComponent&#45;&gt;ReclamationsModule</title>
<path fill="none" stroke="black" d="M890,-84.83C890,-101.2 890,-122.8 890,-122.8 890,-122.8 794.88,-122.8 794.88,-122.8"/>
<polygon fill="black" stroke="black" points="794.88,-119.3 784.88,-122.8 794.88,-126.3 794.88,-119.3"/>
</g>
<!-- ReclamationsComponent -->
<g id="node4" class="node">
<title>ReclamationsComponent</title>
<polygon fill="#ffffb3" stroke="black" points="795.54,-84.8 638.46,-84.8 638.46,-48.8 795.54,-48.8 795.54,-84.8"/>
<text text-anchor="middle" x="717" y="-62.6" font-family="Times,serif" font-size="14.00">ReclamationsComponent</text>
</g>
<!-- ReclamationsComponent&#45;&gt;ReclamationsModule -->
<g id="edge4" class="edge">
<title>ReclamationsComponent&#45;&gt;ReclamationsModule</title>
<path fill="none" stroke="black" d="M717,-84.91C717,-84.91 717,-103.79 717,-103.79"/>
<polygon fill="black" stroke="black" points="713.5,-103.79 717,-113.79 720.5,-103.79 713.5,-103.79"/>
</g>
<!-- ReponseReclamationComponent -->
<g id="node5" class="node">
<title>ReponseReclamationComponent</title>
<polygon fill="#ffffb3" stroke="black" points="620.3,-84.8 419.7,-84.8 419.7,-48.8 620.3,-48.8 620.3,-84.8"/>
<text text-anchor="middle" x="520" y="-62.6" font-family="Times,serif" font-size="14.00">ReponseReclamationComponent</text>
</g>
<!-- ReponseReclamationComponent&#45;&gt;ReclamationsModule -->
<g id="edge5" class="edge">
<title>ReponseReclamationComponent&#45;&gt;ReclamationsModule</title>
<path fill="none" stroke="black" d="M520,-84.83C520,-101.2 520,-122.8 520,-122.8 520,-122.8 639.2,-122.8 639.2,-122.8"/>
<polygon fill="black" stroke="black" points="639.2,-126.3 649.2,-122.8 639.2,-119.3 639.2,-126.3"/>
</g>
<!-- StatReclamationComponent -->
<g id="node6" class="node">
<title>StatReclamationComponent</title>
<polygon fill="#ffffb3" stroke="black" points="401.87,-84.8 228.13,-84.8 228.13,-48.8 401.87,-48.8 401.87,-84.8"/>
<text text-anchor="middle" x="315" y="-62.6" font-family="Times,serif" font-size="14.00">StatReclamationComponent</text>
</g>
<!-- StatReclamationComponent&#45;&gt;ReclamationsModule -->
<g id="edge6" class="edge">
<title>StatReclamationComponent&#45;&gt;ReclamationsModule</title>
<path fill="none" stroke="black" d="M315,-84.91C315,-104.14 315,-131.8 315,-131.8 315,-131.8 638.81,-131.8 638.81,-131.8"/>
<polygon fill="black" stroke="black" points="638.81,-135.3 648.81,-131.8 638.81,-128.3 638.81,-135.3"/>
</g>
<!-- ReclamationsRoutingModule -->
<g id="node8" class="node">
<title>ReclamationsRoutingModule</title>
<polygon fill="#8dd3c7" stroke="black" points="204.37,-84.8 201.37,-88.8 180.37,-88.8 177.37,-84.8 23.63,-84.8 23.63,-48.8 204.37,-48.8 204.37,-84.8"/>
<text text-anchor="middle" x="114" y="-62.6" font-family="Times,serif" font-size="14.00">ReclamationsRoutingModule</text>
</g>
<!-- ReclamationsRoutingModule&#45;&gt;ReclamationsModule -->
<g id="edge7" class="edge">
<title>ReclamationsRoutingModule&#45;&gt;ReclamationsModule</title>
<path fill="none" stroke="black" d="M114,-85.09C114,-107.01 114,-140.8 114,-140.8 114,-140.8 639,-140.8 639,-140.8"/>
<polygon fill="black" stroke="black" points="639,-144.3 649,-140.8 639,-137.3 639,-144.3"/>
</g>
</g>
</svg>
