<?xml version="1.0" encoding="UTF-8" standalone="no"?>
<!DOCTYPE svg PUBLIC "-//W3C//DTD SVG 1.1//EN"
 "http://www.w3.org/Graphics/SVG/1.1/DTD/svg11.dtd">
<!-- Generated by graphviz version 2.47.3 (20210619.1520)
 -->
<!-- Title: dependencies Pages: 1 -->
<svg width="7870pt" height="250pt"
 viewBox="0.00 0.00 7870.00 249.80" xmlns="http://www.w3.org/2000/svg" xmlns:xlink="http://www.w3.org/1999/xlink">
<g id="graph0" class="graph" transform="scale(1 1) rotate(0) translate(4 245.8)">
<title>dependencies</title>
<polygon fill="white" stroke="transparent" points="-4,4 -4,-245.8 7866,-245.8 7866,4 -4,4"/>
<text text-anchor="middle" x="3931" y="-8.2" font-family="sans-serif" font-size="14.00">dependencies</text>
<g id="clust1" class="cluster">
<title>cluster_AppModule</title>
<polygon fill="none" stroke="black" stroke-dasharray="1,5" points="8,-32.8 8,-233.8 864,-233.8 864,-32.8 8,-32.8"/>
</g>
<g id="clust2" class="cluster">
<title>cluster_AppModule_declarations</title>
<polygon fill="none" stroke="black" points="168,-40.8 168,-92.8 856,-92.8 856,-40.8 168,-40.8"/>
</g>
<g id="clust8" class="cluster">
<title>cluster_AppModule_imports</title>
<polygon fill="none" stroke="black" points="16,-40.8 16,-92.8 160,-92.8 160,-40.8 16,-40.8"/>
</g>
<g id="clust10" class="cluster">
<title>cluster_AppModule_bootstrap</title>
<polygon fill="none" stroke="black" points="399,-173.8 399,-225.8 523,-225.8 523,-173.8 399,-173.8"/>
</g>
<g id="clust18" class="cluster">
<title>cluster_CodePromoModule</title>
<polygon fill="none" stroke="black" stroke-dasharray="1,5" points="872,-32.8 872,-233.8 1859,-233.8 1859,-32.8 872,-32.8"/>
</g>
<g id="clust19" class="cluster">
<title>cluster_CodePromoModule_declarations</title>
<polygon fill="none" stroke="black" points="1076,-40.8 1076,-92.8 1851,-92.8 1851,-40.8 1076,-40.8"/>
</g>
<g id="clust24" class="cluster">
<title>cluster_CodePromoModule_imports</title>
<polygon fill="none" stroke="black" points="880,-40.8 880,-92.8 1068,-92.8 1068,-40.8 880,-40.8"/>
</g>
<g id="clust25" class="cluster">
<title>cluster_CodePromoModule_exports</title>
<polygon fill="none" stroke="black" points="1368,-173.8 1368,-225.8 1596,-225.8 1596,-173.8 1368,-173.8"/>
</g>
<g id="clust34" class="cluster">
<title>cluster_FacturesModule</title>
<polygon fill="none" stroke="black" stroke-dasharray="1,5" points="1867,-100.8 1867,-225.8 3184,-225.8 3184,-100.8 1867,-100.8"/>
</g>
<g id="clust35" class="cluster">
<title>cluster_FacturesModule_declarations</title>
<polygon fill="none" stroke="black" points="2051,-108.8 2051,-160.8 3176,-160.8 3176,-108.8 2051,-108.8"/>
</g>
<g id="clust43" class="cluster">
<title>cluster_FacturesModule_imports</title>
<polygon fill="none" stroke="black" points="1875,-108.8 1875,-160.8 2043,-160.8 2043,-108.8 1875,-108.8"/>
</g>
<g id="clust53" class="cluster">
<title>cluster_LikeDislikeModule</title>
<polygon fill="none" stroke="black" stroke-dasharray="1,5" points="3192,-32.8 3192,-160.8 3753,-160.8 3753,-32.8 3192,-32.8"/>
</g>
<g id="clust54" class="cluster">
<title>cluster_LikeDislikeModule_declarations</title>
<polygon fill="none" stroke="black" points="3394,-40.8 3394,-92.8 3745,-92.8 3745,-40.8 3394,-40.8"/>
</g>
<g id="clust57" class="cluster">
<title>cluster_LikeDislikeModule_imports</title>
<polygon fill="none" stroke="black" points="3200,-40.8 3200,-92.8 3386,-92.8 3386,-40.8 3200,-40.8"/>
</g>
<g id="clust67" class="cluster">
<title>cluster_ProductsModule</title>
<polygon fill="none" stroke="black" stroke-dasharray="1,5" points="3761,-32.8 3761,-160.8 4832,-160.8 4832,-32.8 3761,-32.8"/>
</g>
<g id="clust68" class="cluster">
<title>cluster_ProductsModule_declarations</title>
<polygon fill="none" stroke="black" points="3947,-40.8 3947,-92.8 4824,-92.8 4824,-40.8 3947,-40.8"/>
</g>
<g id="clust74" class="cluster">
<title>cluster_ProductsModule_imports</title>
<polygon fill="none" stroke="black" points="3769,-40.8 3769,-92.8 3939,-92.8 3939,-40.8 3769,-40.8"/>
</g>
<g id="clust84" class="cluster">
<title>cluster_ReclamationsModule</title>
<polygon fill="none" stroke="black" stroke-dasharray="1,5" points="4840,-32.8 4840,-160.8 6258,-160.8 6258,-32.8 4840,-32.8"/>
</g>
<g id="clust85" class="cluster">
<title>cluster_ReclamationsModule_declarations</title>
<polygon fill="none" stroke="black" points="5052,-40.8 5052,-92.8 6250,-92.8 6250,-40.8 5052,-40.8"/>
</g>
<g id="clust92" class="cluster">
<title>cluster_ReclamationsModule_imports</title>
<polygon fill="none" stroke="black" points="4848,-40.8 4848,-92.8 5044,-92.8 5044,-40.8 4848,-40.8"/>
</g>
<g id="clust102" class="cluster">
<title>cluster_UsersModule</title>
<polygon fill="none" stroke="black" stroke-dasharray="1,5" points="6266,-32.8 6266,-160.8 7854,-160.8 7854,-32.8 6266,-32.8"/>
</g>
<g id="clust103" class="cluster">
<title>cluster_UsersModule_declarations</title>
<polygon fill="none" stroke="black" points="6434,-40.8 6434,-92.8 7846,-92.8 7846,-40.8 6434,-40.8"/>
</g>
<g id="clust113" class="cluster">
<title>cluster_UsersModule_imports</title>
<polygon fill="none" stroke="black" points="6274,-40.8 6274,-92.8 6426,-92.8 6426,-40.8 6274,-40.8"/>
</g>
<!-- AppComponent -->
<g id="node1" class="node">
<title>AppComponent</title>
<polygon fill="#ffffb3" stroke="black" points="847.94,-84.8 742.06,-84.8 742.06,-48.8 847.94,-48.8 847.94,-84.8"/>
<text text-anchor="middle" x="795" y="-62.6" font-family="Times,serif" font-size="14.00">AppComponent</text>
</g>
<!-- AppModule -->
<g id="node6" class="node">
<title>AppModule</title>
<polygon fill="#8dd3c7" stroke="black" points="502.66,-152.8 499.66,-156.8 478.66,-156.8 475.66,-152.8 419.34,-152.8 419.34,-116.8 502.66,-116.8 502.66,-152.8"/>
<text text-anchor="middle" x="461" y="-130.6" font-family="Times,serif" font-size="14.00">AppModule</text>
</g>
<!-- AppComponent&#45;&gt;AppModule -->
<g id="edge1" class="edge">
<title>AppComponent&#45;&gt;AppModule</title>
<path fill="none" stroke="black" d="M795,-85.12C795,-108.46 795,-145.8 795,-145.8 795,-145.8 512.96,-145.8 512.96,-145.8"/>
<polygon fill="black" stroke="black" points="512.96,-142.3 502.96,-145.8 512.96,-149.3 512.96,-142.3"/>
</g>
<!-- FooterComponent -->
<g id="node2" class="node">
<title>FooterComponent</title>
<polygon fill="#ffffb3" stroke="black" points="723.88,-84.8 606.12,-84.8 606.12,-48.8 723.88,-48.8 723.88,-84.8"/>
<text text-anchor="middle" x="665" y="-62.6" font-family="Times,serif" font-size="14.00">FooterComponent</text>
</g>
<!-- FooterComponent&#45;&gt;AppModule -->
<g id="edge2" class="edge">
<title>FooterComponent&#45;&gt;AppModule</title>
<path fill="none" stroke="black" d="M665,-84.97C665,-106.3 665,-138.8 665,-138.8 665,-138.8 512.77,-138.8 512.77,-138.8"/>
<polygon fill="black" stroke="black" points="512.77,-135.3 502.77,-138.8 512.77,-142.3 512.77,-135.3"/>
</g>
<!-- HomeComponent -->
<g id="node3" class="node">
<title>HomeComponent</title>
<polygon fill="#ffffb3" stroke="black" points="587.55,-84.8 472.45,-84.8 472.45,-48.8 587.55,-48.8 587.55,-84.8"/>
<text text-anchor="middle" x="530" y="-62.6" font-family="Times,serif" font-size="14.00">HomeComponent</text>
</g>
<!-- HomeComponent&#45;&gt;AppModule -->
<g id="edge3" class="edge">
<title>HomeComponent&#45;&gt;AppModule</title>
<path fill="none" stroke="black" d="M487.53,-85.02C487.53,-85.02 487.53,-106.53 487.53,-106.53"/>
<polygon fill="black" stroke="black" points="484.03,-106.53 487.53,-116.53 491.03,-106.53 484.03,-106.53"/>
</g>
<!-- NavbarComponent -->
<g id="node4" class="node">
<title>NavbarComponent</title>
<polygon fill="#ffffb3" stroke="black" points="454.03,-84.8 331.97,-84.8 331.97,-48.8 454.03,-48.8 454.03,-84.8"/>
<text text-anchor="middle" x="393" y="-62.6" font-family="Times,serif" font-size="14.00">NavbarComponent</text>
</g>
<!-- NavbarComponent&#45;&gt;AppModule -->
<g id="edge4" class="edge">
<title>NavbarComponent&#45;&gt;AppModule</title>
<path fill="none" stroke="black" d="M436.72,-85.02C436.72,-85.02 436.72,-106.53 436.72,-106.53"/>
<polygon fill="black" stroke="black" points="433.22,-106.53 436.72,-116.53 440.22,-106.53 433.22,-106.53"/>
</g>
<!-- SidemenuComponent -->
<g id="node5" class="node">
<title>SidemenuComponent</title>
<polygon fill="#ffffb3" stroke="black" points="313.83,-84.8 176.17,-84.8 176.17,-48.8 313.83,-48.8 313.83,-84.8"/>
<text text-anchor="middle" x="245" y="-62.6" font-family="Times,serif" font-size="14.00">SidemenuComponent</text>
</g>
<!-- SidemenuComponent&#45;&gt;AppModule -->
<g id="edge5" class="edge">
<title>SidemenuComponent&#45;&gt;AppModule</title>
<path fill="none" stroke="black" d="M245,-85.07C245,-103.36 245,-128.8 245,-128.8 245,-128.8 409.1,-128.8 409.1,-128.8"/>
<polygon fill="black" stroke="black" points="409.1,-132.3 419.1,-128.8 409.1,-125.3 409.1,-132.3"/>
</g>
<!-- AppComponent  -->
<g id="node8" class="node">
<title>AppComponent </title>
<polygon fill="#80b1d3" stroke="black" points="515.44,-217.8 406.56,-217.8 406.56,-181.8 515.44,-181.8 515.44,-217.8"/>
<text text-anchor="middle" x="461" y="-195.6" font-family="Times,serif" font-size="14.00">AppComponent </text>
</g>
<!-- AppModule&#45;&gt;AppComponent  -->
<g id="edge7" class="edge">
<title>AppModule&#45;&gt;AppComponent </title>
<path fill="none" stroke="black" stroke-dasharray="1,5" d="M461,-152.91C461,-152.91 461,-171.79 461,-171.79"/>
<polygon fill="black" stroke="black" points="457.5,-171.79 461,-181.79 464.5,-171.79 457.5,-171.79"/>
</g>
<!-- AppRoutingModule -->
<g id="node7" class="node">
<title>AppRoutingModule</title>
<polygon fill="#8dd3c7" stroke="black" points="152.27,-84.8 149.27,-88.8 128.27,-88.8 125.27,-84.8 23.73,-84.8 23.73,-48.8 152.27,-48.8 152.27,-84.8"/>
<text text-anchor="middle" x="88" y="-62.6" font-family="Times,serif" font-size="14.00">AppRoutingModule</text>
</g>
<!-- AppRoutingModule&#45;&gt;AppModule -->
<g id="edge6" class="edge">
<title>AppRoutingModule&#45;&gt;AppModule</title>
<path fill="none" stroke="black" d="M88,-85.09C88,-107.01 88,-140.8 88,-140.8 88,-140.8 409.3,-140.8 409.3,-140.8"/>
<polygon fill="black" stroke="black" points="409.3,-144.3 419.3,-140.8 409.3,-137.3 409.3,-144.3"/>
</g>
<!-- CodePromoComponent -->
<g id="node9" class="node">
<title>CodePromoComponent</title>
<polygon fill="#ffffb3" stroke="black" points="1843.22,-84.8 1694.78,-84.8 1694.78,-48.8 1843.22,-48.8 1843.22,-84.8"/>
<text text-anchor="middle" x="1769" y="-62.6" font-family="Times,serif" font-size="14.00">CodePromoComponent</text>
</g>
<!-- CodePromoModule -->
<g id="node13" class="node">
<title>CodePromoModule</title>
<polygon fill="#8dd3c7" stroke="black" points="1545.44,-152.8 1542.44,-156.8 1521.44,-156.8 1518.44,-152.8 1418.56,-152.8 1418.56,-116.8 1545.44,-116.8 1545.44,-152.8"/>
<text text-anchor="middle" x="1482" y="-130.6" font-family="Times,serif" font-size="14.00">CodePromoModule</text>
</g>
<!-- CodePromoComponent&#45;&gt;CodePromoModule -->
<g id="edge8" class="edge">
<title>CodePromoComponent&#45;&gt;CodePromoModule</title>
<path fill="none" stroke="black" d="M1769,-85.07C1769,-103.36 1769,-128.8 1769,-128.8 1769,-128.8 1555.34,-128.8 1555.34,-128.8"/>
<polygon fill="black" stroke="black" points="1555.34,-125.3 1545.34,-128.8 1555.34,-132.3 1555.34,-125.3"/>
</g>
<!-- FormCodePromoComponent -->
<g id="node10" class="node">
<title>FormCodePromoComponent</title>
<polygon fill="#ffffb3" stroke="black" points="1677.05,-84.8 1498.95,-84.8 1498.95,-48.8 1677.05,-48.8 1677.05,-84.8"/>
<text text-anchor="middle" x="1588" y="-62.6" font-family="Times,serif" font-size="14.00">FormCodePromoComponent</text>
</g>
<!-- FormCodePromoComponent&#45;&gt;CodePromoModule -->
<g id="edge9" class="edge">
<title>FormCodePromoComponent&#45;&gt;CodePromoModule</title>
<path fill="none" stroke="black" d="M1521.97,-85.02C1521.97,-85.02 1521.97,-106.53 1521.97,-106.53"/>
<polygon fill="black" stroke="black" points="1518.47,-106.53 1521.97,-116.53 1525.47,-106.53 1518.47,-106.53"/>
</g>
<!-- FormFrontCodePromoComponent -->
<g id="node11" class="node">
<title>FormFrontCodePromoComponent</title>
<polygon fill="#ffffb3" stroke="black" points="1480.39,-84.8 1271.61,-84.8 1271.61,-48.8 1480.39,-48.8 1480.39,-84.8"/>
<text text-anchor="middle" x="1376" y="-62.6" font-family="Times,serif" font-size="14.00">FormFrontCodePromoComponent</text>
</g>
<!-- FormFrontCodePromoComponent&#45;&gt;CodePromoModule -->
<g id="edge10" class="edge">
<title>FormFrontCodePromoComponent&#45;&gt;CodePromoModule</title>
<path fill="none" stroke="black" d="M1449.61,-85.02C1449.61,-85.02 1449.61,-106.53 1449.61,-106.53"/>
<polygon fill="black" stroke="black" points="1446.11,-106.53 1449.61,-116.53 1453.11,-106.53 1446.11,-106.53"/>
</g>
<!-- ListCodePromoComponent -->
<g id="node12" class="node">
<title>ListCodePromoComponent</title>
<polygon fill="#ffffb3" stroke="black" points="1254,-84.8 1084,-84.8 1084,-48.8 1254,-48.8 1254,-84.8"/>
<text text-anchor="middle" x="1169" y="-62.6" font-family="Times,serif" font-size="14.00">ListCodePromoComponent</text>
</g>
<!-- ListCodePromoComponent&#45;&gt;CodePromoModule -->
<g id="edge11" class="edge">
<title>ListCodePromoComponent&#45;&gt;CodePromoModule</title>
<path fill="none" stroke="black" d="M1169,-84.83C1169,-101.86 1169,-124.8 1169,-124.8 1169,-124.8 1408.66,-124.8 1408.66,-124.8"/>
<polygon fill="black" stroke="black" points="1408.66,-128.3 1418.66,-124.8 1408.66,-121.3 1408.66,-128.3"/>
</g>
<!-- FormFrontCodePromoComponent  -->
<g id="node15" class="node">
<title>FormFrontCodePromoComponent </title>
<polygon fill="#fb8072" stroke="black" points="1588.39,-217.8 1375.61,-217.8 1375.61,-181.8 1588.39,-181.8 1588.39,-217.8"/>
<text text-anchor="middle" x="1482" y="-195.6" font-family="Times,serif" font-size="14.00">FormFrontCodePromoComponent </text>
</g>
<!-- CodePromoModule&#45;&gt;FormFrontCodePromoComponent  -->
<g id="edge13" class="edge">
<title>CodePromoModule&#45;&gt;FormFrontCodePromoComponent </title>
<path fill="none" stroke="black" stroke-dasharray="5,2" d="M1482,-152.91C1482,-152.91 1482,-171.79 1482,-171.79"/>
<polygon fill="black" stroke="black" points="1478.5,-171.79 1482,-181.79 1485.5,-171.79 1478.5,-171.79"/>
</g>
<!-- FacturesModule -->
<g id="node23" class="node">
<title>FacturesModule</title>
<polygon fill="#8dd3c7" stroke="black" points="2486.47,-217.8 2483.47,-221.8 2462.47,-221.8 2459.47,-217.8 2379.53,-217.8 2379.53,-181.8 2486.47,-181.8 2486.47,-217.8"/>
<text text-anchor="middle" x="2433" y="-195.6" font-family="Times,serif" font-size="14.00">FacturesModule</text>
</g>
<!-- CodePromoModule&#45;&gt;FacturesModule -->
<g id="edge21" class="edge">
<title>CodePromoModule&#45;&gt;FacturesModule</title>
<path fill="none" stroke="black" d="M1545.49,-140.8C1586.68,-140.8 1632.73,-140.8 1632.73,-140.8 1632.73,-140.8 1632.73,-210.8 1632.73,-210.8 1632.73,-210.8 2369.25,-210.8 2369.25,-210.8"/>
<polygon fill="black" stroke="black" points="2369.25,-214.3 2379.25,-210.8 2369.25,-207.3 2369.25,-214.3"/>
</g>
<!-- CodePromoRoutingModule -->
<g id="node14" class="node">
<title>CodePromoRoutingModule</title>
<polygon fill="#8dd3c7" stroke="black" points="1059.55,-84.8 1056.55,-88.8 1035.55,-88.8 1032.55,-84.8 888.45,-84.8 888.45,-48.8 1059.55,-48.8 1059.55,-84.8"/>
<text text-anchor="middle" x="974" y="-62.6" font-family="Times,serif" font-size="14.00">CodePromoRoutingModule</text>
</g>
<!-- CodePromoRoutingModule&#45;&gt;CodePromoModule -->
<g id="edge12" class="edge">
<title>CodePromoRoutingModule&#45;&gt;CodePromoModule</title>
<path fill="none" stroke="black" d="M974,-84.91C974,-104.14 974,-131.8 974,-131.8 974,-131.8 1408.69,-131.8 1408.69,-131.8"/>
<polygon fill="black" stroke="black" points="1408.69,-135.3 1418.69,-131.8 1408.69,-128.3 1408.69,-135.3"/>
</g>
<!-- CommandeComponent -->
<g id="node16" class="node">
<title>CommandeComponent</title>
<polygon fill="#ffffb3" stroke="black" points="3167.88,-152.8 3022.12,-152.8 3022.12,-116.8 3167.88,-116.8 3167.88,-152.8"/>
<text text-anchor="middle" x="3095" y="-130.6" font-family="Times,serif" font-size="14.00">CommandeComponent</text>
</g>
<!-- CommandeComponent&#45;&gt;FacturesModule -->
<g id="edge14" class="edge">
<title>CommandeComponent&#45;&gt;FacturesModule</title>
<path fill="none" stroke="black" d="M3095,-152.81C3095,-175.29 3095,-210.8 3095,-210.8 3095,-210.8 2496.61,-210.8 2496.61,-210.8"/>
<polygon fill="black" stroke="black" points="2496.61,-207.3 2486.61,-210.8 2496.61,-214.3 2496.61,-207.3"/>
</g>
<!-- FactureComponent -->
<g id="node17" class="node">
<title>FactureComponent</title>
<polygon fill="#ffffb3" stroke="black" points="3003.81,-152.8 2880.19,-152.8 2880.19,-116.8 3003.81,-116.8 3003.81,-152.8"/>
<text text-anchor="middle" x="2942" y="-130.6" font-family="Times,serif" font-size="14.00">FactureComponent</text>
</g>
<!-- FactureComponent&#45;&gt;FacturesModule -->
<g id="edge15" class="edge">
<title>FactureComponent&#45;&gt;FacturesModule</title>
<path fill="none" stroke="black" d="M2942,-152.93C2942,-173.37 2942,-203.8 2942,-203.8 2942,-203.8 2496.51,-203.8 2496.51,-203.8"/>
<polygon fill="black" stroke="black" points="2496.51,-200.3 2486.51,-203.8 2496.51,-207.3 2496.51,-200.3"/>
</g>
<!-- FacturesComponent -->
<g id="node18" class="node">
<title>FacturesComponent</title>
<polygon fill="#ffffb3" stroke="black" points="2862.25,-152.8 2733.75,-152.8 2733.75,-116.8 2862.25,-116.8 2862.25,-152.8"/>
<text text-anchor="middle" x="2798" y="-130.6" font-family="Times,serif" font-size="14.00">FacturesComponent</text>
</g>
<!-- FacturesComponent&#45;&gt;FacturesModule -->
<g id="edge16" class="edge">
<title>FacturesComponent&#45;&gt;FacturesModule</title>
<path fill="none" stroke="black" d="M2798,-153.07C2798,-171.36 2798,-196.8 2798,-196.8 2798,-196.8 2496.86,-196.8 2496.86,-196.8"/>
<polygon fill="black" stroke="black" points="2496.86,-193.3 2486.86,-196.8 2496.86,-200.3 2496.86,-193.3"/>
</g>
<!-- FormDetailFactureComponent -->
<g id="node19" class="node">
<title>FormDetailFactureComponent</title>
<polygon fill="#ffffb3" stroke="black" points="2715.85,-152.8 2528.15,-152.8 2528.15,-116.8 2715.85,-116.8 2715.85,-152.8"/>
<text text-anchor="middle" x="2622" y="-130.6" font-family="Times,serif" font-size="14.00">FormDetailFactureComponent</text>
</g>
<!-- FormDetailFactureComponent&#45;&gt;FacturesModule -->
<g id="edge17" class="edge">
<title>FormDetailFactureComponent&#45;&gt;FacturesModule</title>
<path fill="none" stroke="black" d="M2622,-152.81C2622,-168.85 2622,-189.8 2622,-189.8 2622,-189.8 2496.65,-189.8 2496.65,-189.8"/>
<polygon fill="black" stroke="black" points="2496.65,-186.3 2486.65,-189.8 2496.65,-193.3 2496.65,-186.3"/>
</g>
<!-- FormFactureComponent -->
<g id="node20" class="node">
<title>FormFactureComponent</title>
<polygon fill="#ffffb3" stroke="black" points="2509.64,-152.8 2356.36,-152.8 2356.36,-116.8 2509.64,-116.8 2509.64,-152.8"/>
<text text-anchor="middle" x="2433" y="-130.6" font-family="Times,serif" font-size="14.00">FormFactureComponent</text>
</g>
<!-- FormFactureComponent&#45;&gt;FacturesModule -->
<g id="edge18" class="edge">
<title>FormFactureComponent&#45;&gt;FacturesModule</title>
<path fill="none" stroke="black" d="M2433,-152.91C2433,-152.91 2433,-171.79 2433,-171.79"/>
<polygon fill="black" stroke="black" points="2429.5,-171.79 2433,-181.79 2436.5,-171.79 2429.5,-171.79"/>
</g>
<!-- PanierComponent -->
<g id="node21" class="node">
<title>PanierComponent</title>
<polygon fill="#ffffb3" stroke="black" points="2338.6,-152.8 2221.4,-152.8 2221.4,-116.8 2338.6,-116.8 2338.6,-152.8"/>
<text text-anchor="middle" x="2280" y="-130.6" font-family="Times,serif" font-size="14.00">PanierComponent</text>
</g>
<!-- PanierComponent&#45;&gt;FacturesModule -->
<g id="edge19" class="edge">
<title>PanierComponent&#45;&gt;FacturesModule</title>
<path fill="none" stroke="black" d="M2280,-152.81C2280,-168.85 2280,-189.8 2280,-189.8 2280,-189.8 2369.49,-189.8 2369.49,-189.8"/>
<polygon fill="black" stroke="black" points="2369.49,-193.3 2379.49,-189.8 2369.49,-186.3 2369.49,-193.3"/>
</g>
<!-- PanierVideComponent -->
<g id="node22" class="node">
<title>PanierVideComponent</title>
<polygon fill="#ffffb3" stroke="black" points="2203.31,-152.8 2058.69,-152.8 2058.69,-116.8 2203.31,-116.8 2203.31,-152.8"/>
<text text-anchor="middle" x="2131" y="-130.6" font-family="Times,serif" font-size="14.00">PanierVideComponent</text>
</g>
<!-- PanierVideComponent&#45;&gt;FacturesModule -->
<g id="edge20" class="edge">
<title>PanierVideComponent&#45;&gt;FacturesModule</title>
<path fill="none" stroke="black" d="M2131,-153.07C2131,-171.36 2131,-196.8 2131,-196.8 2131,-196.8 2369.36,-196.8 2369.36,-196.8"/>
<polygon fill="black" stroke="black" points="2369.36,-200.3 2379.36,-196.8 2369.36,-193.3 2369.36,-200.3"/>
</g>
<!-- FacturesRoutingModule -->
<g id="node24" class="node">
<title>FacturesRoutingModule</title>
<polygon fill="#8dd3c7" stroke="black" points="2035.09,-152.8 2032.09,-156.8 2011.09,-156.8 2008.09,-152.8 1882.91,-152.8 1882.91,-116.8 2035.09,-116.8 2035.09,-152.8"/>
<text text-anchor="middle" x="1959" y="-130.6" font-family="Times,serif" font-size="14.00">FacturesRoutingModule</text>
</g>
<!-- FacturesRoutingModule&#45;&gt;FacturesModule -->
<g id="edge22" class="edge">
<title>FacturesRoutingModule&#45;&gt;FacturesModule</title>
<path fill="none" stroke="black" d="M1959,-152.93C1959,-173.37 1959,-203.8 1959,-203.8 1959,-203.8 2369.09,-203.8 2369.09,-203.8"/>
<polygon fill="black" stroke="black" points="2369.09,-207.3 2379.09,-203.8 2369.09,-200.3 2369.09,-207.3"/>
</g>
<!-- LikeDislikeComponent -->
<g id="node25" class="node">
<title>LikeDislikeComponent</title>
<polygon fill="#ffffb3" stroke="black" points="3736.93,-84.8 3589.07,-84.8 3589.07,-48.8 3736.93,-48.8 3736.93,-84.8"/>
<text text-anchor="middle" x="3663" y="-62.6" font-family="Times,serif" font-size="14.00">LikeDislikeComponent</text>
</g>
<!-- LikeDislikeModule -->
<g id="node27" class="node">
<title>LikeDislikeModule</title>
<polygon fill="#8dd3c7" stroke="black" points="3549.65,-152.8 3546.65,-156.8 3525.65,-156.8 3522.65,-152.8 3424.35,-152.8 3424.35,-116.8 3549.65,-116.8 3549.65,-152.8"/>
<text text-anchor="middle" x="3487" y="-130.6" font-family="Times,serif" font-size="14.00">LikeDislikeModule</text>
</g>
<!-- LikeDislikeComponent&#45;&gt;LikeDislikeModule -->
<g id="edge23" class="edge">
<title>LikeDislikeComponent&#45;&gt;LikeDislikeModule</title>
<path fill="none" stroke="black" d="M3663,-85.05C3663,-107.82 3663,-143.8 3663,-143.8 3663,-143.8 3560.04,-143.8 3560.04,-143.8"/>
<polygon fill="black" stroke="black" points="3560.04,-140.3 3550.04,-143.8 3560.04,-147.3 3560.04,-140.3"/>
</g>
<!-- ListLikeDislikeComponent -->
<g id="node26" class="node">
<title>ListLikeDislikeComponent</title>
<polygon fill="#ffffb3" stroke="black" points="3571.71,-84.8 3402.29,-84.8 3402.29,-48.8 3571.71,-48.8 3571.71,-84.8"/>
<text text-anchor="middle" x="3487" y="-62.6" font-family="Times,serif" font-size="14.00">ListLikeDislikeComponent</text>
</g>
<!-- ListLikeDislikeComponent&#45;&gt;LikeDislikeModule -->
<g id="edge24" class="edge">
<title>ListLikeDislikeComponent&#45;&gt;LikeDislikeModule</title>
<path fill="none" stroke="black" d="M3487,-85.02C3487,-85.02 3487,-106.53 3487,-106.53"/>
<polygon fill="black" stroke="black" points="3483.5,-106.53 3487,-116.53 3490.5,-106.53 3483.5,-106.53"/>
</g>
<!-- LikeDislikeRoutingModule -->
<g id="node28" class="node">
<title>LikeDislikeRoutingModule</title>
<polygon fill="#8dd3c7" stroke="black" points="3378.26,-84.8 3375.26,-88.8 3354.26,-88.8 3351.26,-84.8 3207.74,-84.8 3207.74,-48.8 3378.26,-48.8 3378.26,-84.8"/>
<text text-anchor="middle" x="3293" y="-62.6" font-family="Times,serif" font-size="14.00">LikeDislikeRoutingModule</text>
</g>
<!-- LikeDislikeRoutingModule&#45;&gt;LikeDislikeModule -->
<g id="edge25" class="edge">
<title>LikeDislikeRoutingModule&#45;&gt;LikeDislikeModule</title>
<path fill="none" stroke="black" d="M3293,-85.02C3293,-105.17 3293,-134.8 3293,-134.8 3293,-134.8 3414.28,-134.8 3414.28,-134.8"/>
<polygon fill="black" stroke="black" points="3414.28,-138.3 3424.28,-134.8 3414.28,-131.3 3414.28,-138.3"/>
</g>
<!-- CategorieProduitComponent -->
<g id="node29" class="node">
<title>CategorieProduitComponent</title>
<polygon fill="#ffffb3" stroke="black" points="4816.48,-84.8 4639.52,-84.8 4639.52,-48.8 4816.48,-48.8 4816.48,-84.8"/>
<text text-anchor="middle" x="4728" y="-62.6" font-family="Times,serif" font-size="14.00">CategorieProduitComponent</text>
</g>
<!-- ProductsModule -->
<g id="node34" class="node">
<title>ProductsModule</title>
<polygon fill="#8dd3c7" stroke="black" points="4294.04,-152.8 4291.04,-156.8 4270.04,-156.8 4267.04,-152.8 4185.96,-152.8 4185.96,-116.8 4294.04,-116.8 4294.04,-152.8"/>
<text text-anchor="middle" x="4240" y="-130.6" font-family="Times,serif" font-size="14.00">ProductsModule</text>
</g>
<!-- CategorieProduitComponent&#45;&gt;ProductsModule -->
<g id="edge26" class="edge">
<title>CategorieProduitComponent&#45;&gt;ProductsModule</title>
<path fill="none" stroke="black" d="M4728,-85.07C4728,-103.36 4728,-128.8 4728,-128.8 4728,-128.8 4304.09,-128.8 4304.09,-128.8"/>
<polygon fill="black" stroke="black" points="4304.09,-125.3 4294.09,-128.8 4304.09,-132.3 4304.09,-125.3"/>
</g>
<!-- FormCategorieproduitComponent -->
<g id="node30" class="node">
<title>FormCategorieproduitComponent</title>
<polygon fill="#ffffb3" stroke="black" points="4621.03,-84.8 4414.97,-84.8 4414.97,-48.8 4621.03,-48.8 4621.03,-84.8"/>
<text text-anchor="middle" x="4518" y="-62.6" font-family="Times,serif" font-size="14.00">FormCategorieproduitComponent</text>
</g>
<!-- FormCategorieproduitComponent&#45;&gt;ProductsModule -->
<g id="edge27" class="edge">
<title>FormCategorieproduitComponent&#45;&gt;ProductsModule</title>
<path fill="none" stroke="black" d="M4518,-84.83C4518,-101.2 4518,-122.8 4518,-122.8 4518,-122.8 4304.26,-122.8 4304.26,-122.8"/>
<polygon fill="black" stroke="black" points="4304.26,-119.3 4294.26,-122.8 4304.26,-126.3 4304.26,-119.3"/>
</g>
<!-- FormProduitComponent -->
<g id="node31" class="node">
<title>FormProduitComponent</title>
<polygon fill="#ffffb3" stroke="black" points="4396.39,-84.8 4243.61,-84.8 4243.61,-48.8 4396.39,-48.8 4396.39,-84.8"/>
<text text-anchor="middle" x="4320" y="-62.6" font-family="Times,serif" font-size="14.00">FormProduitComponent</text>
</g>
<!-- FormProduitComponent&#45;&gt;ProductsModule -->
<g id="edge28" class="edge">
<title>FormProduitComponent&#45;&gt;ProductsModule</title>
<path fill="none" stroke="black" d="M4268.91,-85.02C4268.91,-85.02 4268.91,-106.53 4268.91,-106.53"/>
<polygon fill="black" stroke="black" points="4265.41,-106.53 4268.91,-116.53 4272.41,-106.53 4265.41,-106.53"/>
</g>
<!-- ProductsComponent -->
<g id="node32" class="node">
<title>ProductsComponent</title>
<polygon fill="#ffffb3" stroke="black" points="4225.33,-84.8 4094.67,-84.8 4094.67,-48.8 4225.33,-48.8 4225.33,-84.8"/>
<text text-anchor="middle" x="4160" y="-62.6" font-family="Times,serif" font-size="14.00">ProductsComponent</text>
</g>
<!-- ProductsComponent&#45;&gt;ProductsModule -->
<g id="edge29" class="edge">
<title>ProductsComponent&#45;&gt;ProductsModule</title>
<path fill="none" stroke="black" d="M4205.45,-85.02C4205.45,-85.02 4205.45,-106.53 4205.45,-106.53"/>
<polygon fill="black" stroke="black" points="4201.95,-106.53 4205.45,-116.53 4208.95,-106.53 4201.95,-106.53"/>
</g>
<!-- ProduitComponent -->
<g id="node33" class="node">
<title>ProduitComponent</title>
<polygon fill="#ffffb3" stroke="black" points="4077.06,-84.8 3954.94,-84.8 3954.94,-48.8 4077.06,-48.8 4077.06,-84.8"/>
<text text-anchor="middle" x="4016" y="-62.6" font-family="Times,serif" font-size="14.00">ProduitComponent</text>
</g>
<!-- ProduitComponent&#45;&gt;ProductsModule -->
<g id="edge30" class="edge">
<title>ProduitComponent&#45;&gt;ProductsModule</title>
<path fill="none" stroke="black" d="M4016,-84.82C4016,-102.17 4016,-125.8 4016,-125.8 4016,-125.8 4175.78,-125.8 4175.78,-125.8"/>
<polygon fill="black" stroke="black" points="4175.78,-129.3 4185.78,-125.8 4175.78,-122.3 4175.78,-129.3"/>
</g>
<!-- ProductsRoutingModule -->
<g id="node35" class="node">
<title>ProductsRoutingModule</title>
<polygon fill="#8dd3c7" stroke="black" points="3930.66,-84.8 3927.66,-88.8 3906.66,-88.8 3903.66,-84.8 3777.34,-84.8 3777.34,-48.8 3930.66,-48.8 3930.66,-84.8"/>
<text text-anchor="middle" x="3854" y="-62.6" font-family="Times,serif" font-size="14.00">ProductsRoutingModule</text>
</g>
<!-- ProductsRoutingModule&#45;&gt;ProductsModule -->
<g id="edge31" class="edge">
<title>ProductsRoutingModule&#45;&gt;ProductsModule</title>
<path fill="none" stroke="black" d="M3854,-85.02C3854,-105.17 3854,-134.8 3854,-134.8 3854,-134.8 4175.92,-134.8 4175.92,-134.8"/>
<polygon fill="black" stroke="black" points="4175.92,-138.3 4185.92,-134.8 4175.92,-131.3 4175.92,-138.3"/>
</g>
<!-- FormReclamationComponent -->
<g id="node36" class="node">
<title>FormReclamationComponent</title>
<polygon fill="#ffffb3" stroke="black" points="6242.42,-84.8 6059.58,-84.8 6059.58,-48.8 6242.42,-48.8 6242.42,-84.8"/>
<text text-anchor="middle" x="6151" y="-62.6" font-family="Times,serif" font-size="14.00">FormReclamationComponent</text>
</g>
<!-- ReclamationsModule -->
<g id="node42" class="node">
<title>ReclamationsModule</title>
<polygon fill="#8dd3c7" stroke="black" points="5616.75,-152.8 5613.75,-156.8 5592.75,-156.8 5589.75,-152.8 5481.25,-152.8 5481.25,-116.8 5616.75,-116.8 5616.75,-152.8"/>
<text text-anchor="middle" x="5549" y="-130.6" font-family="Times,serif" font-size="14.00">ReclamationsModule</text>
</g>
<!-- FormReclamationComponent&#45;&gt;ReclamationsModule -->
<g id="edge32" class="edge">
<title>FormReclamationComponent&#45;&gt;ReclamationsModule</title>
<path fill="none" stroke="black" d="M6151,-85C6151,-109.16 6151,-148.8 6151,-148.8 6151,-148.8 5626.89,-148.8 5626.89,-148.8"/>
<polygon fill="black" stroke="black" points="5626.89,-145.3 5616.89,-148.8 5626.89,-152.3 5626.89,-145.3"/>
</g>
<!-- FormReponsereclamationComponent -->
<g id="node37" class="node">
<title>FormReponsereclamationComponent</title>
<polygon fill="#ffffb3" stroke="black" points="6041.96,-84.8 5816.04,-84.8 5816.04,-48.8 6041.96,-48.8 6041.96,-84.8"/>
<text text-anchor="middle" x="5929" y="-62.6" font-family="Times,serif" font-size="14.00">FormReponsereclamationComponent</text>
</g>
<!-- FormReponsereclamationComponent&#45;&gt;ReclamationsModule -->
<g id="edge33" class="edge">
<title>FormReponsereclamationComponent&#45;&gt;ReclamationsModule</title>
<path fill="none" stroke="black" d="M5929,-85.05C5929,-107.82 5929,-143.8 5929,-143.8 5929,-143.8 5626.94,-143.8 5626.94,-143.8"/>
<polygon fill="black" stroke="black" points="5626.94,-140.3 5616.94,-143.8 5626.94,-147.3 5626.94,-140.3"/>
</g>
<!-- ReclamationComponent -->
<g id="node38" class="node">
<title>ReclamationComponent</title>
<polygon fill="#ffffb3" stroke="black" points="5798.09,-84.8 5645.91,-84.8 5645.91,-48.8 5798.09,-48.8 5798.09,-84.8"/>
<text text-anchor="middle" x="5722" y="-62.6" font-family="Times,serif" font-size="14.00">ReclamationComponent</text>
</g>
<!-- ReclamationComponent&#45;&gt;ReclamationsModule -->
<g id="edge34" class="edge">
<title>ReclamationComponent&#45;&gt;ReclamationsModule</title>
<path fill="none" stroke="black" d="M5722,-84.84C5722,-106.46 5722,-139.8 5722,-139.8 5722,-139.8 5626.88,-139.8 5626.88,-139.8"/>
<polygon fill="black" stroke="black" points="5626.88,-136.3 5616.88,-139.8 5626.88,-143.3 5626.88,-136.3"/>
</g>
<!-- ReclamationsComponent -->
<g id="node39" class="node">
<title>ReclamationsComponent</title>
<polygon fill="#ffffb3" stroke="black" points="5627.54,-84.8 5470.46,-84.8 5470.46,-48.8 5627.54,-48.8 5627.54,-84.8"/>
<text text-anchor="middle" x="5549" y="-62.6" font-family="Times,serif" font-size="14.00">ReclamationsComponent</text>
</g>
<!-- ReclamationsComponent&#45;&gt;ReclamationsModule -->
<g id="edge35" class="edge">
<title>ReclamationsComponent&#45;&gt;ReclamationsModule</title>
<path fill="none" stroke="black" d="M5549,-85.02C5549,-85.02 5549,-106.53 5549,-106.53"/>
<polygon fill="black" stroke="black" points="5545.5,-106.53 5549,-116.53 5552.5,-106.53 5545.5,-106.53"/>
</g>
<!-- ReponseReclamationComponent -->
<g id="node40" class="node">
<title>ReponseReclamationComponent</title>
<polygon fill="#ffffb3" stroke="black" points="5452.3,-84.8 5251.7,-84.8 5251.7,-48.8 5452.3,-48.8 5452.3,-84.8"/>
<text text-anchor="middle" x="5352" y="-62.6" font-family="Times,serif" font-size="14.00">ReponseReclamationComponent</text>
</g>
<!-- ReponseReclamationComponent&#45;&gt;ReclamationsModule -->
<g id="edge36" class="edge">
<title>ReponseReclamationComponent&#45;&gt;ReclamationsModule</title>
<path fill="none" stroke="black" d="M5352,-85.02C5352,-105.17 5352,-134.8 5352,-134.8 5352,-134.8 5471.2,-134.8 5471.2,-134.8"/>
<polygon fill="black" stroke="black" points="5471.2,-138.3 5481.2,-134.8 5471.2,-131.3 5471.2,-138.3"/>
</g>
<!-- StatReclamationComponent -->
<g id="node41" class="node">
<title>StatReclamationComponent</title>
<polygon fill="#ffffb3" stroke="black" points="5233.87,-84.8 5060.13,-84.8 5060.13,-48.8 5233.87,-48.8 5233.87,-84.8"/>
<text text-anchor="middle" x="5147" y="-62.6" font-family="Times,serif" font-size="14.00">StatReclamationComponent</text>
</g>
<!-- StatReclamationComponent&#45;&gt;ReclamationsModule -->
<g id="edge37" class="edge">
<title>StatReclamationComponent&#45;&gt;ReclamationsModule</title>
<path fill="none" stroke="black" d="M5147,-85.09C5147,-107.01 5147,-140.8 5147,-140.8 5147,-140.8 5470.81,-140.8 5470.81,-140.8"/>
<polygon fill="black" stroke="black" points="5470.81,-144.3 5480.81,-140.8 5470.81,-137.3 5470.81,-144.3"/>
</g>
<!-- ReclamationsRoutingModule -->
<g id="node43" class="node">
<title>ReclamationsRoutingModule</title>
<polygon fill="#8dd3c7" stroke="black" points="5036.37,-84.8 5033.37,-88.8 5012.37,-88.8 5009.37,-84.8 4855.63,-84.8 4855.63,-48.8 5036.37,-48.8 5036.37,-84.8"/>
<text text-anchor="middle" x="4946" y="-62.6" font-family="Times,serif" font-size="14.00">ReclamationsRoutingModule</text>
</g>
<!-- ReclamationsRoutingModule&#45;&gt;ReclamationsModule -->
<g id="edge38" class="edge">
<title>ReclamationsRoutingModule&#45;&gt;ReclamationsModule</title>
<path fill="none" stroke="black" d="M4946,-84.95C4946,-108.56 4946,-146.8 4946,-146.8 4946,-146.8 5471,-146.8 5471,-146.8"/>
<polygon fill="black" stroke="black" points="5471,-150.3 5481,-146.8 5471,-143.3 5471,-150.3"/>
</g>
<!-- ConnectionComponent -->
<g id="node44" class="node">
<title>ConnectionComponent</title>
<polygon fill="#ffffb3" stroke="black" points="7837.88,-84.8 7692.12,-84.8 7692.12,-48.8 7837.88,-48.8 7837.88,-84.8"/>
<text text-anchor="middle" x="7765" y="-62.6" font-family="Times,serif" font-size="14.00">ConnectionComponent</text>
</g>
<!-- UsersModule -->
<g id="node53" class="node">
<title>UsersModule</title>
<polygon fill="#8dd3c7" stroke="black" points="7071.92,-152.8 7068.92,-156.8 7047.92,-156.8 7044.92,-152.8 6980.08,-152.8 6980.08,-116.8 7071.92,-116.8 7071.92,-152.8"/>
<text text-anchor="middle" x="7026" y="-130.6" font-family="Times,serif" font-size="14.00">UsersModule</text>
</g>
<!-- ConnectionComponent&#45;&gt;UsersModule -->
<g id="edge39" class="edge">
<title>ConnectionComponent&#45;&gt;UsersModule</title>
<path fill="none" stroke="black" d="M7765,-85.12C7765,-108.46 7765,-145.8 7765,-145.8 7765,-145.8 7081.95,-145.8 7081.95,-145.8"/>
<polygon fill="black" stroke="black" points="7081.95,-142.3 7071.95,-145.8 7081.95,-149.3 7081.95,-142.3"/>
</g>
<!-- ForgetPasswordComponent -->
<g id="node45" class="node">
<title>ForgetPasswordComponent</title>
<polygon fill="#ffffb3" stroke="black" points="7673.54,-84.8 7502.46,-84.8 7502.46,-48.8 7673.54,-48.8 7673.54,-84.8"/>
<text text-anchor="middle" x="7588" y="-62.6" font-family="Times,serif" font-size="14.00">ForgetPasswordComponent</text>
</g>
<!-- ForgetPasswordComponent&#45;&gt;UsersModule -->
<g id="edge40" class="edge">
<title>ForgetPasswordComponent&#45;&gt;UsersModule</title>
<path fill="none" stroke="black" d="M7588,-84.97C7588,-106.3 7588,-138.8 7588,-138.8 7588,-138.8 7081.99,-138.8 7081.99,-138.8"/>
<polygon fill="black" stroke="black" points="7081.99,-135.3 7071.99,-138.8 7081.99,-142.3 7081.99,-135.3"/>
</g>
<!-- InscriptionComponent -->
<g id="node46" class="node">
<title>InscriptionComponent</title>
<polygon fill="#ffffb3" stroke="black" points="7483.98,-84.8 7342.02,-84.8 7342.02,-48.8 7483.98,-48.8 7483.98,-84.8"/>
<text text-anchor="middle" x="7413" y="-62.6" font-family="Times,serif" font-size="14.00">InscriptionComponent</text>
</g>
<!-- InscriptionComponent&#45;&gt;UsersModule -->
<g id="edge41" class="edge">
<title>InscriptionComponent&#45;&gt;UsersModule</title>
<path fill="none" stroke="black" d="M7413,-84.91C7413,-104.14 7413,-131.8 7413,-131.8 7413,-131.8 7081.91,-131.8 7081.91,-131.8"/>
<polygon fill="black" stroke="black" points="7081.91,-128.3 7071.91,-131.8 7081.91,-135.3 7081.91,-128.3"/>
</g>
<!-- MainUserComponent -->
<g id="node47" class="node">
<title>MainUserComponent</title>
<polygon fill="#ffffb3" stroke="black" points="7323.81,-84.8 7186.19,-84.8 7186.19,-48.8 7323.81,-48.8 7323.81,-84.8"/>
<text text-anchor="middle" x="7255" y="-62.6" font-family="Times,serif" font-size="14.00">MainUserComponent</text>
</g>
<!-- MainUserComponent&#45;&gt;UsersModule -->
<g id="edge42" class="edge">
<title>MainUserComponent&#45;&gt;UsersModule</title>
<path fill="none" stroke="black" d="M7255,-84.83C7255,-101.86 7255,-124.8 7255,-124.8 7255,-124.8 7081.79,-124.8 7081.79,-124.8"/>
<polygon fill="black" stroke="black" points="7081.79,-121.3 7071.79,-124.8 7081.79,-128.3 7081.79,-121.3"/>
</g>
<!-- ProfileComponent -->
<g id="node48" class="node">
<title>ProfileComponent</title>
<polygon fill="#ffffb3" stroke="black" points="7168.93,-84.8 7049.07,-84.8 7049.07,-48.8 7168.93,-48.8 7168.93,-84.8"/>
<text text-anchor="middle" x="7109" y="-62.6" font-family="Times,serif" font-size="14.00">ProfileComponent</text>
</g>
<!-- ProfileComponent&#45;&gt;UsersModule -->
<g id="edge43" class="edge">
<title>ProfileComponent&#45;&gt;UsersModule</title>
<path fill="none" stroke="black" d="M7060.5,-85.02C7060.5,-85.02 7060.5,-106.53 7060.5,-106.53"/>
<polygon fill="black" stroke="black" points="7057,-106.53 7060.5,-116.53 7064,-106.53 7057,-106.53"/>
</g>
<!-- UpdatePswFormComponent -->
<g id="node49" class="node">
<title>UpdatePswFormComponent</title>
<polygon fill="#ffffb3" stroke="black" points="7031.93,-84.8 6856.07,-84.8 6856.07,-48.8 7031.93,-48.8 7031.93,-84.8"/>
<text text-anchor="middle" x="6944" y="-62.6" font-family="Times,serif" font-size="14.00">UpdatePswFormComponent</text>
</g>
<!-- UpdatePswFormComponent&#45;&gt;UsersModule -->
<g id="edge44" class="edge">
<title>UpdatePswFormComponent&#45;&gt;UsersModule</title>
<path fill="none" stroke="black" d="M7006,-85.02C7006,-85.02 7006,-106.53 7006,-106.53"/>
<polygon fill="black" stroke="black" points="7002.5,-106.53 7006,-116.53 7009.5,-106.53 7002.5,-106.53"/>
</g>
<!-- UserComponent -->
<g id="node50" class="node">
<title>UserComponent</title>
<polygon fill="#ffffb3" stroke="black" points="6837.76,-84.8 6730.24,-84.8 6730.24,-48.8 6837.76,-48.8 6837.76,-84.8"/>
<text text-anchor="middle" x="6784" y="-62.6" font-family="Times,serif" font-size="14.00">UserComponent</text>
</g>
<!-- UserComponent&#45;&gt;UsersModule -->
<g id="edge45" class="edge">
<title>UserComponent&#45;&gt;UsersModule</title>
<path fill="none" stroke="black" d="M6784,-84.81C6784,-100.85 6784,-121.8 6784,-121.8 6784,-121.8 6970.2,-121.8 6970.2,-121.8"/>
<polygon fill="black" stroke="black" points="6970.2,-125.3 6980.2,-121.8 6970.2,-118.3 6970.2,-125.3"/>
</g>
<!-- UserFormComponent -->
<g id="node51" class="node">
<title>UserFormComponent</title>
<polygon fill="#ffffb3" stroke="black" points="6712.09,-84.8 6573.91,-84.8 6573.91,-48.8 6712.09,-48.8 6712.09,-84.8"/>
<text text-anchor="middle" x="6643" y="-62.6" font-family="Times,serif" font-size="14.00">UserFormComponent</text>
</g>
<!-- UserFormComponent&#45;&gt;UsersModule -->
<g id="edge46" class="edge">
<title>UserFormComponent&#45;&gt;UsersModule</title>
<path fill="none" stroke="black" d="M6643,-84.82C6643,-102.17 6643,-125.8 6643,-125.8 6643,-125.8 6970.18,-125.8 6970.18,-125.8"/>
<polygon fill="black" stroke="black" points="6970.18,-129.3 6980.18,-125.8 6970.18,-122.3 6970.18,-129.3"/>
</g>
<!-- UsersComponent -->
<g id="node52" class="node">
<title>UsersComponent</title>
<polygon fill="#ffffb3" stroke="black" points="6555.7,-84.8 6442.3,-84.8 6442.3,-48.8 6555.7,-48.8 6555.7,-84.8"/>
<text text-anchor="middle" x="6499" y="-62.6" font-family="Times,serif" font-size="14.00">UsersComponent</text>
</g>
<!-- UsersComponent&#45;&gt;UsersModule -->
<g id="edge47" class="edge">
<title>UsersComponent&#45;&gt;UsersModule</title>
<path fill="none" stroke="black" d="M6499,-84.97C6499,-103.89 6499,-130.8 6499,-130.8 6499,-130.8 6970.15,-130.8 6970.15,-130.8"/>
<polygon fill="black" stroke="black" points="6970.15,-134.3 6980.15,-130.8 6970.15,-127.3 6970.15,-134.3"/>
</g>
<!-- UsersRoutingModule -->
<g id="node54" class="node">
<title>UsersRoutingModule</title>
<polygon fill="#8dd3c7" stroke="black" points="6418.04,-84.8 6415.04,-88.8 6394.04,-88.8 6391.04,-84.8 6281.96,-84.8 6281.96,-48.8 6418.04,-48.8 6418.04,-84.8"/>
<text text-anchor="middle" x="6350" y="-62.6" font-family="Times,serif" font-size="14.00">UsersRoutingModule</text>
</g>
<!-- UsersRoutingModule&#45;&gt;UsersModule -->
<g id="edge48" class="edge">
<title>UsersRoutingModule&#45;&gt;UsersModule</title>
<path fill="none" stroke="black" d="M6350,-85.02C6350,-105.17 6350,-134.8 6350,-134.8 6350,-134.8 6970.07,-134.8 6970.07,-134.8"/>
<polygon fill="black" stroke="black" points="6970.07,-138.3 6980.07,-134.8 6970.07,-131.3 6970.07,-138.3"/>
</g>
</g>
</svg>
